<svg width="103" height="30" viewBox="0 0 103 30" fill="none" xmlns="http://www.w3.org/2000/svg">
<path d="M5.31274 0.101173C3.21477 0.979965 0.908741 3.4595 0.180364 6.57423C-0.742207 10.5194 3.09628 12.1882 3.41137 11.6417C3.78188 10.9989 2.72356 10.7816 2.50567 8.73446C2.22412 6.09045 3.45334 3.13618 5.00046 1.83988C5.28764 1.59889 5.27418 1.93426 5.27418 2.5542C5.27418 3.66293 5.21293 13.6164 5.21293 15.6937C5.21293 18.5044 5.09686 19.392 4.88821 20.2692C4.67714 21.1578 4.33735 21.7585 4.5946 21.9898C4.88218 22.2485 6.11 21.633 6.8207 20.6411C7.67299 19.4515 7.97141 18.0224 8.02503 16.4711C8.08969 14.6006 8.08688 11.6325 8.08969 9.93958C8.0921 8.38704 8.1158 3.84066 8.06238 1.10749C8.04932 0.436745 6.19013 -0.26653 5.31274 0.101173Z" fill="#5E8A0F"/>
<path d="M79.8057 13.2555C79.738 14.7169 79.4145 15.859 79.013 16.6646C78.2359 18.2244 76.6233 18.7086 75.9385 16.4666C75.5654 15.2444 75.5479 13.2033 75.816 11.4977C76.0891 9.76043 76.8518 8.44827 78.1144 8.56655C79.3599 8.68363 79.9428 10.2884 79.8057 13.2557V13.2555ZM58.8099 22.3218C58.793 24.7497 58.4108 26.8784 57.5915 27.4969C56.4291 28.3737 54.867 27.7158 55.1905 25.9442C55.4767 24.3764 56.8304 22.7752 58.8133 20.8188C58.8133 20.8188 58.8173 21.265 58.8099 22.3218ZM58.4926 13.2413C58.4215 14.5723 58.0765 15.9092 57.6999 16.6646C56.9228 18.2244 55.2985 18.712 54.6254 16.4666C54.1651 14.9324 54.2753 12.9471 54.5029 11.6959C54.7985 10.0727 55.515 8.56675 56.8013 8.56675C58.052 8.56675 58.6689 9.93896 58.4926 13.2413ZM46.3299 13.2212C46.2536 14.6305 45.9786 15.8087 45.5374 16.6646C44.739 18.2138 43.1593 18.705 42.4629 16.4666C41.9606 14.8526 42.1315 12.652 42.3404 11.4632C42.6504 9.69898 43.4268 8.44827 44.6388 8.56675C45.8836 8.68845 46.4887 10.2884 46.3299 13.2212ZM102.068 14.8675C101.764 14.8675 101.625 15.1812 101.51 15.7089C101.112 17.5452 100.693 17.9595 100.153 17.9595C99.5492 17.9595 99.007 17.0506 98.8674 15.2308C98.7579 13.7997 98.7756 11.1654 98.9156 8.54486C98.9443 8.00646 98.7957 7.47368 97.3516 6.94914C96.7303 6.72342 95.827 6.39106 95.3771 7.4767C94.1065 10.544 93.6093 12.9792 93.4922 13.968C93.4862 14.0192 93.4233 14.0299 93.4125 13.9102C93.3378 13.118 93.1713 11.6781 93.1504 8.6533C93.1464 8.06309 93.0215 7.56084 92.37 7.14956C91.9473 6.88247 90.6639 6.41054 90.2018 6.97223C89.8013 7.43131 89.3374 8.66716 88.8557 10.1323C88.4641 11.3232 88.1914 12.1285 88.1914 12.1285C88.1914 12.1285 88.1966 8.91578 88.2012 7.697C88.2032 7.23732 87.8879 7.08409 87.7927 7.05638C87.365 6.93227 86.5215 6.72482 86.1637 6.72482C85.7219 6.72482 85.6138 6.97143 85.6138 7.3313C85.6138 7.37849 85.5441 11.5612 85.5441 14.4859C85.5441 14.6131 85.5441 14.7516 85.5447 14.899C85.3005 16.2433 84.5083 18.068 83.6468 18.068C82.784 18.068 82.3772 17.3053 82.3772 13.8184C82.3772 11.7843 82.4382 10.8997 82.4682 9.42847C82.4856 8.58101 82.5194 7.93035 82.5174 7.78275C82.5109 7.32989 81.7281 7.10156 81.3636 7.01722C80.9976 6.93227 80.6795 6.89913 80.431 6.91339C80.0794 6.93347 79.8306 7.16382 79.8306 7.48111C79.8306 7.65141 79.8326 7.97473 79.8326 7.97473C79.3797 7.26302 78.6514 6.7678 78.1668 6.62421C76.8615 6.23663 75.4995 6.58003 74.4721 8.01771C73.6555 9.15977 73.1633 10.4537 72.9695 12.3123C72.828 13.6712 72.8742 15.049 73.126 16.2144C72.8217 17.5294 72.2572 18.068 71.6389 18.068C70.7412 18.068 70.0906 16.6032 70.1661 14.0692C70.2159 12.4026 70.5495 11.233 70.9139 9.54093C71.0694 8.81958 70.9431 8.44204 70.6264 8.08016C70.3358 7.7482 69.7166 7.57851 68.827 7.78696C68.1932 7.93577 67.2869 8.09583 66.4577 8.21873C66.4577 8.21873 66.5079 8.01891 66.5489 7.66707C66.7646 5.82153 64.759 5.97114 64.119 6.56055C63.7372 6.91259 63.4771 7.32769 63.3785 8.07394C63.2219 9.25838 64.1879 9.81706 64.1879 9.81706C63.8712 11.2678 63.0942 13.1627 62.2921 14.5329C61.8625 15.2669 61.534 15.811 61.1097 16.3891C61.0958 14.0689 61.111 11.7485 61.1551 9.42867C61.1725 8.58121 61.2065 7.94782 61.2047 7.80002C61.1998 7.46906 61.0064 7.34375 60.6042 7.1855C60.2483 7.04533 59.8278 6.94854 59.3914 6.9144C58.8408 6.87182 58.509 7.16362 58.5179 7.50903C58.5195 7.57429 58.5195 7.97473 58.5195 7.97473C58.0666 7.26302 57.3383 6.7678 56.8537 6.62421C55.5483 6.23663 54.1864 6.58003 53.159 8.01771C52.3426 9.15977 51.8081 10.7627 51.6564 12.2982C51.5155 13.729 51.5414 14.945 51.7338 15.9696C51.5263 16.9954 50.9295 18.0682 50.2549 18.0682C49.3922 18.0682 48.9014 17.3053 48.9014 13.8184C48.9014 11.7843 48.9624 10.8997 48.9925 9.42847C49.01 8.58121 49.0436 7.93035 49.0417 7.78275C49.0353 7.32989 48.2523 7.10176 47.8878 7.01722C47.5067 6.92886 47.1775 6.89672 46.9247 6.9154C46.5913 6.9401 46.3568 7.23872 46.3568 7.46143V7.97473C45.9039 7.26302 45.1755 6.7678 44.691 6.62421C43.3856 6.23663 42.0313 6.58565 40.9963 8.01771C40.3215 8.95132 39.7751 9.98635 39.4939 12.2777C39.4126 12.9398 39.3766 13.5602 39.3815 14.1395C39.1124 15.7855 37.9235 17.6824 36.9513 17.6824C36.3824 17.6824 35.8404 16.5787 35.8404 14.2269C35.8404 11.0941 36.0344 6.63345 36.0673 6.20369C36.0673 6.20369 37.2957 6.18281 37.5335 6.18C38.1464 6.17317 38.7013 6.18783 39.5176 6.14586C39.9269 6.12517 40.3213 4.65577 39.8988 4.47402C39.7072 4.39169 38.3539 4.31979 37.8173 4.30835C37.3662 4.2983 36.1103 4.20512 36.1103 4.20512C36.1103 4.20512 36.223 1.24442 36.2493 0.931746C36.2714 0.670879 35.934 0.536731 35.7408 0.455399C35.2705 0.256586 34.8497 0.161196 34.3511 0.058376C33.6619 -0.0838051 33.3494 0.0553637 33.2884 0.63674C33.1964 1.51935 33.1488 4.10451 33.1488 4.10451C32.6431 4.10451 30.9157 4.00571 30.41 4.00571C29.9401 4.00571 29.4328 6.02677 30.0827 6.05167C30.8301 6.08059 32.1328 6.10589 32.9964 6.1316C32.9964 6.1316 32.9578 10.6657 32.9578 12.0659C32.9578 12.2145 32.9586 12.358 32.9594 12.4972C32.4841 14.9743 30.81 16.3126 30.81 16.3126C31.1695 14.6737 30.4351 13.4429 29.1123 12.401C28.6249 12.0173 27.6628 11.2905 26.5864 10.494C26.5864 10.494 27.2097 9.87951 27.7628 8.64326C28.1544 7.76728 28.1715 6.76539 27.2097 6.54428C25.6208 6.17879 24.3109 7.34576 23.9201 8.59165C23.6172 9.5568 23.7787 10.2727 24.3719 11.0166C24.4151 11.071 24.4623 11.1266 24.5105 11.1824C24.152 11.8737 23.6592 12.8045 23.2419 13.5262C22.0836 15.5304 21.2086 17.1153 20.5473 17.1153C20.0187 17.1153 20.0258 15.5059 20.0258 13.9992C20.0258 12.7002 20.1218 10.7473 20.1985 8.7256C20.2238 8.05687 19.8892 7.67591 19.3289 7.3309C18.9883 7.12124 18.2615 6.70916 17.8406 6.70916C17.2105 6.70916 15.3926 6.79491 13.6752 11.7632C13.4587 12.3894 13.0334 13.5304 13.0334 13.5304L13.0701 7.55582C13.0701 7.41564 12.9954 7.28029 12.8245 7.18771C12.5351 7.03047 11.7622 6.70916 11.0748 6.70916C10.7474 6.70916 10.5838 6.86138 10.5838 7.16502L10.5239 16.5124C10.5239 17.2227 10.5424 18.0513 10.6127 18.4136C10.6826 18.7763 10.796 19.0715 10.9362 19.247C11.0766 19.4223 11.2386 19.5563 11.5059 19.6113C11.7548 19.6625 13.1171 19.8374 13.188 19.3169C13.2728 18.6927 13.2762 18.018 13.9915 15.5009C15.1053 11.5821 16.5572 9.67026 17.24 8.99108C17.3595 8.8726 17.4956 8.86537 17.489 9.05956C17.4601 9.91868 17.3575 12.0659 17.2886 13.8893C17.1036 18.7703 17.9914 19.6749 19.2604 19.6749C20.2312 19.6749 21.5996 18.7104 23.0664 16.2688C23.8837 14.9082 24.6972 13.5453 25.507 12.1801C25.9514 12.5916 26.4504 13.0344 26.9489 13.5075C28.1076 14.6072 28.4879 15.6523 28.2355 16.6436C28.0427 17.4013 27.3156 18.1822 26.0217 17.4233C25.6445 17.2018 25.4835 17.0305 25.1043 16.7809C24.9007 16.647 24.5896 16.6068 24.4031 16.7474C23.9187 17.1125 23.6415 17.5772 23.4833 18.1523C23.3295 18.712 23.89 19.0078 24.4711 19.2667C24.9714 19.4894 26.0468 19.6912 26.7324 19.7141C29.4043 19.8035 31.5448 18.424 33.0349 14.8657C33.3016 17.9389 34.4367 19.6778 36.4089 19.6778C37.7275 19.6778 39.0495 17.9734 39.6277 16.2967C39.7936 16.9801 40.0394 17.5746 40.3567 18.0772C41.8763 20.4851 44.8243 19.9669 46.3052 17.9222C46.763 17.2904 46.8327 17.0635 46.8327 17.0635C47.0488 18.994 48.6036 19.6685 49.4936 19.6685C50.4907 19.6685 51.5199 19.1972 52.2414 17.573C52.326 17.7493 52.4184 17.9178 52.5192 18.0772C54.0388 20.4851 56.987 19.9669 58.4679 17.9222C58.5378 17.8262 58.5984 17.7394 58.6512 17.6611L58.6946 18.9293L57.3312 20.1798C55.0459 22.2744 53.31 23.8629 53.1823 25.713C53.0196 28.0721 54.9318 28.9489 56.3805 29.0637C57.9162 29.1856 59.2338 28.3365 60.0423 27.1483C60.754 26.1022 61.2199 23.851 61.1856 21.6277C61.1721 20.7373 61.1494 19.6053 61.132 18.3917C61.9342 17.4601 62.8381 16.2825 63.6703 14.9045C64.5772 13.4025 65.5492 11.3855 66.0469 9.81565C66.0469 9.81565 66.8913 9.82308 67.7926 9.76404C68.0808 9.74517 68.1637 9.80421 68.1103 10.0153C68.046 10.2707 66.9716 14.4142 67.9522 17.1745C68.6232 19.0643 70.136 19.6719 71.0328 19.6719C72.0829 19.6719 73.0872 18.8791 73.6254 17.7019C73.6905 17.833 73.7582 17.9599 73.8323 18.0774C75.3519 20.4853 78.2897 19.9637 79.781 17.9222C80.1176 17.4615 80.3085 17.0635 80.3085 17.0635C80.6284 19.0616 82.1824 19.6788 83.0724 19.6788C83.9994 19.6788 84.8794 19.2986 85.5931 17.6095C85.6233 18.3533 85.6701 18.9614 85.7441 19.153C85.7893 19.2705 86.0528 19.4175 86.2444 19.4886C87.0927 19.8031 87.9574 19.6545 88.2775 19.5898C88.4992 19.5448 88.6721 19.3669 88.6958 18.9078C88.7581 17.7019 88.7199 15.6758 89.0854 14.1699C89.6989 11.6429 90.2715 10.6627 90.543 10.1775C90.695 9.90542 90.8663 9.86064 90.8725 10.1484C90.8854 10.7308 90.9143 12.4404 91.1521 14.7378C91.3268 16.4271 91.5597 17.4258 91.7391 17.7421C92.2507 18.6457 92.8823 18.6885 93.3968 18.6885C93.7242 18.6885 94.4086 18.5981 94.3473 18.023C94.3174 17.7427 94.3696 16.01 94.9747 13.5204C95.3697 11.8946 96.0284 10.4257 96.266 9.88855C96.3537 9.69054 96.3945 9.84658 96.3929 9.87711C96.3429 10.9967 96.2306 14.6588 96.6867 16.6618C97.3052 19.3751 99.0937 19.6788 99.7171 19.6788C101.048 19.6788 102.136 18.6666 102.502 16.0033C102.591 15.3623 102.46 14.8675 102.068 14.8675Z" fill="#5E8A0F"/>
</svg>
