<svg xmlns="http://www.w3.org/2000/svg" viewBox="0 0 202.57 101.74"><defs><style>.cls-1{fill:#33730f;}.cls-2,.cls-3{fill:none;stroke:#33730f;stroke-linecap:round;stroke-linejoin:round;}.cls-2{stroke-width:1.51px;}.cls-3{stroke-width:0.57px;}</style></defs><g id="レイヤー_2" data-name="レイヤー 2"><g id="テキスト"><path class="cls-1" d="M157.16,31.83q2.81,3.26,5.56,6.56a.76.76,0,0,0,1.07,0,.78.78,0,0,0,0-1.07Q161,34,158.23,30.76a.76.76,0,0,0-1.07,1.07Z" transform="translate(0 -0.01)"/><path class="cls-1" d="M129.29,18.38a56.28,56.28,0,0,1,6-3.75,11.08,11.08,0,0,1,3.52-1.45h.38c.2,0-.09,0,0,0l.25.07c.05,0,.22.09.07,0l.23.11a5.57,5.57,0,0,1,.57.37,42.18,42.18,0,0,1,4.52,4.14c.69.68,1.76-.39,1.06-1.07a53.89,53.89,0,0,0-4.44-4.1,4.17,4.17,0,0,0-2.36-1.05,8,8,0,0,0-3.6,1.15,45,45,0,0,0-4.41,2.54c-.87.56-1.73,1.13-2.58,1.73s0,1.86.76,1.3Z" transform="translate(0 -0.01)"/><path class="cls-1" d="M24,100.65l-.58.06-2-2.29A14,14,0,0,1,20.22,97h0c.12.59.2,1.14.31,1.94l.28,2.06-.55.06-.63-4.67.62-.06,2.06,2.28A14,14,0,0,1,23.43,100h0c-.14-.64-.23-1.2-.33-1.94l-.27-2L23.4,96Z" transform="translate(0 -0.01)"/><path class="cls-1" d="M28.22,98.55a1.65,1.65,0,0,1-1.58,1.94,1.73,1.73,0,0,1-2-1.57A1.65,1.65,0,0,1,26.26,97,1.72,1.72,0,0,1,28.22,98.55Zm-1.93-1.16a1.17,1.17,0,0,0-1,1.46,1.29,1.29,0,0,0,1.33,1.24,1.21,1.21,0,0,0,1-1.47A1.27,1.27,0,0,0,26.29,97.39Z" transform="translate(0 -0.01)"/><path class="cls-1" d="M34.47,99.73l-.69.06-2-2.2-.44.55.21,1.84-.58,0-.54-4.68.58,0,.27,2.28h0c.11-.19.24-.37.35-.54l1.44-1.92.72-.06-1.67,2.15Z" transform="translate(0 -0.01)"/><path class="cls-1" d="M37.41,98.69a4.46,4.46,0,0,0,.14.79l-.53,0-.1-.43h0a1.39,1.39,0,0,1-1.08.6,1,1,0,0,1-1.22-.87c-.09-.8.67-1.3,2.09-1.41a.81.81,0,0,0-1-.85,1.9,1.9,0,0,0-.92.31l-.18-.33a2.35,2.35,0,0,1,1.15-.38,1.25,1.25,0,0,1,1.51,1.22Zm-.68-.89c-.73,0-1.63.22-1.55.92a.62.62,0,0,0,.73.57.87.87,0,0,0,.89-.86Z" transform="translate(0 -0.01)"/><path class="cls-1" d="M41.39,95.81c0,.24,0,.52.06.93l.2,2A1.61,1.61,0,0,1,40,100.75a2.69,2.69,0,0,1-1.24-.17l.12-.41a2.49,2.49,0,0,0,1.11.17A1.06,1.06,0,0,0,41.09,99l0-.4h0a1.34,1.34,0,0,1-1.14.66,1.72,1.72,0,0,1-.25-3.43,1.31,1.31,0,0,1,1.22.49h0l0-.51Zm-.5,1.34a1,1,0,0,0-1.12-.88A1.32,1.32,0,0,0,40,98.88,1,1,0,0,0,41,97.82Z" transform="translate(0 -0.01)"/><path class="cls-1" d="M45.76,98c0,.35.08.64.12.89l-.53,0-.08-.53h0a1.4,1.4,0,0,1-1.17.68c-.58.05-1.3-.2-1.41-1.35l-.19-2,.59,0,.18,1.88c.06.66.33,1.1,1,1a.94.94,0,0,0,.92-1l-.2-2.09.58,0Z" transform="translate(0 -0.01)"/><path class="cls-1" d="M48.48,95.76h-.21a1,1,0,0,0-.86,1.18l.16,1.82-.59,0-.21-2.35c0-.36-.07-.68-.11-1l.51,0,.09.64h0a1.1,1.1,0,0,1,1-.79.53.53,0,0,1,.18,0Z" transform="translate(0 -0.01)"/><path class="cls-1" d="M51.86,97.68a3.84,3.84,0,0,0,.12.8l-.54,0-.09-.42h0a1.36,1.36,0,0,1-1.1.57,1,1,0,0,1-1.2-.88c-.07-.8.7-1.29,2.13-1.38a.8.8,0,0,0-1-.86,1.8,1.8,0,0,0-.92.3l-.17-.35a2.44,2.44,0,0,1,1.15-.35,1.25,1.25,0,0,1,1.49,1.25Zm-.66-.9c-.73,0-1.63.19-1.58.9a.62.62,0,0,0,.72.58.87.87,0,0,0,.91-.85Z" transform="translate(0 -0.01)"/><path class="cls-1" d="M55.26,94.92l0,.33-1.6,2.19c-.13.19-.26.36-.4.53h0l2.23-.12,0,.41-3,.18,0-.31,1.61-2.21c.14-.19.27-.35.42-.54h0l-2.07.12,0-.42Z" transform="translate(0 -0.01)"/><path class="cls-1" d="M58.7,97.3a3.85,3.85,0,0,0,.12.79l-.54,0-.09-.43h0a1.4,1.4,0,0,1-1.1.56,1,1,0,0,1-1.2-.89c-.06-.81.72-1.29,2.15-1.36a.81.81,0,0,0-1-.88,1.89,1.89,0,0,0-.92.29L56,95.08a2.55,2.55,0,0,1,1.15-.35A1.25,1.25,0,0,1,58.61,96Zm-.65-.92c-.73,0-1.63.19-1.58.89a.61.61,0,0,0,.71.59A.88.88,0,0,0,58.1,97Z" transform="translate(0 -0.01)"/><path class="cls-1" d="M62.88,97.89l-.73,0-1.44-1.6-.33.37L60.47,98l-.59,0-.33-4.93.58,0,.22,3.14h0a3.9,3.9,0,0,1,.31-.4l1.07-1.24.71,0L61.09,96Z" transform="translate(0 -0.01)"/><path class="cls-1" d="M65.85,97a3.89,3.89,0,0,0,.1.8l-.54,0-.08-.43h0a1.35,1.35,0,0,1-1.11.56A1,1,0,0,1,63,97c-.05-.81.73-1.28,2.16-1.34a.81.81,0,0,0-.94-.89,1.79,1.79,0,0,0-.92.29l-.17-.35a2.36,2.36,0,0,1,1.16-.33,1.23,1.23,0,0,1,1.46,1.27ZM65.21,96c-.73,0-1.64.17-1.59.88a.6.6,0,0,0,.7.59.89.89,0,0,0,.93-.83Z" transform="translate(0 -0.01)"/><path class="cls-1" d="M72.46,97.48l-.58,0L70,95.1a13.42,13.42,0,0,1-1-1.52h0c.08.6.11,1.15.16,2l.1,2.07-.55,0-.24-4.69.61,0,1.87,2.41a14.48,14.48,0,0,1,1,1.49h0c-.09-.65-.13-1.21-.17-2l-.11-2,.56,0Z" transform="translate(0 -0.01)"/><path class="cls-1" d="M76.82,95.63A1.79,1.79,0,1,1,75,94,1.69,1.69,0,0,1,76.82,95.63ZM75,94.35a1.21,1.21,0,0,0-1.12,1.41,1.26,1.26,0,0,0,1.23,1.31,1.24,1.24,0,0,0,1.13-1.4A1.27,1.27,0,0,0,75,94.35Z" transform="translate(0 -0.01)"/><path class="cls-1" d="M82.24,97.19l-2.82.07-.17-4.7h.59L80,96.81l2.24-.06Z" transform="translate(0 -0.01)"/><path class="cls-1" d="M83.12,93.21a.35.35,0,0,1-.39-.34.39.39,0,0,1,.77,0A.34.34,0,0,1,83.12,93.21Zm.42,4H83l-.1-3.36h.59Z" transform="translate(0 -0.01)"/><path class="cls-1" d="M84.68,93.77a1.63,1.63,0,0,1,.39-1.35A1.35,1.35,0,0,1,86,92.1a1.71,1.71,0,0,1,.58.08l-.09.41a1.06,1.06,0,0,0-.45-.07c-.61,0-.74.5-.73,1v.19l.93,0v.4l-.93,0,.08,3h-.59l-.08-3h-.53v-.4Z" transform="translate(0 -0.01)"/><path class="cls-1" d="M89.61,96.9a3.1,3.1,0,0,1-1.21.23,1.64,1.64,0,0,1-1.84-1.66,1.68,1.68,0,0,1,1.68-1.85,1.45,1.45,0,0,1,1.54,1.51c0,.12,0,.21,0,.29l-2.63,0a1.19,1.19,0,0,0,1.34,1.26,2.61,2.61,0,0,0,1-.19Zm-.42-1.85a1,1,0,0,0-1-1,1.11,1.11,0,0,0-1.06,1.07Z" transform="translate(0 -0.01)"/><path class="cls-1" d="M90.5,96.72a.43.43,0,0,1,.85,0,.39.39,0,0,1-.42.39A.39.39,0,0,1,90.5,96.72Z" transform="translate(0 -0.01)"/><path class="cls-1" d="M98,92.26,96.56,97H96l-.73-2.51a13.25,13.25,0,0,1-.38-1.55h0a12.53,12.53,0,0,1-.41,1.55L93.68,97h-.6l-1.4-4.68h.63L93,94.75c.17.59.32,1.16.42,1.62h0a14.38,14.38,0,0,1,.41-1.63l.72-2.45h.6l.71,2.42c.15.56.31,1.12.4,1.63h0c.1-.53.24-1,.4-1.63l.71-2.44Z" transform="translate(0 -0.01)"/><path class="cls-1" d="M101.41,96.82a3.19,3.19,0,0,1-1.21.21,1.64,1.64,0,0,1-1.81-1.69,1.68,1.68,0,0,1,1.72-1.82,1.44,1.44,0,0,1,1.5,1.53,2.19,2.19,0,0,1,0,.29H99a1.19,1.19,0,0,0,1.32,1.28,2.67,2.67,0,0,0,1-.17ZM101,95a1,1,0,0,0-1-1A1.09,1.09,0,0,0,99,95Z" transform="translate(0 -0.01)"/><path class="cls-1" d="M106.64,96.18a3.53,3.53,0,0,0,0,.81h-.54l-.06-.43h0a1.4,1.4,0,0,1-1.14.5,1,1,0,0,1-1.12-1c0-.81.82-1.24,2.25-1.23a.79.79,0,0,0-.87-.93,2,2,0,0,0-1,.23l-.14-.35a2.45,2.45,0,0,1,1.18-.27,1.21,1.21,0,0,1,1.37,1.34Zm-.58-.94c-.73,0-1.64.08-1.65.79a.61.61,0,0,0,.66.63.91.91,0,0,0,1-.79Z" transform="translate(0 -0.01)"/><path class="cls-1" d="M109.55,94.09l-.22,0a1,1,0,0,0-1,1.11l0,1.82h-.59l0-2.36c0-.36,0-.68,0-1h.52l0,.65h0a1.12,1.12,0,0,1,1.06-.71l.17,0Z" transform="translate(0 -0.01)"/><path class="cls-1" d="M112.9,96.92a3.15,3.15,0,0,1-1.22.19,1.62,1.62,0,0,1-1.77-1.72,1.7,1.7,0,0,1,1.76-1.79,1.43,1.43,0,0,1,1.47,1.56,2,2,0,0,1,0,.28l-2.63,0a1.18,1.18,0,0,0,1.29,1.3,2.93,2.93,0,0,0,1-.16Zm-.34-1.87a.93.93,0,0,0-1-1.06,1.11,1.11,0,0,0-1.1,1Z" transform="translate(0 -0.01)"/><path class="cls-1" d="M118.59,97.18l-.72,0-1.29-1.68-.36.34,0,1.31-.59,0,.15-4.93h.58l-.09,3.14h0c.09-.11.23-.26.34-.37l1.19-1.16h.71L117,95.17Z" transform="translate(0 -0.01)"/><path class="cls-1" d="M121.82,97.12a3,3,0,0,1-1.22.18,1.62,1.62,0,0,1-1.74-1.74,1.7,1.7,0,0,1,1.79-1.77,1.42,1.42,0,0,1,1.44,1.57,2.19,2.19,0,0,1,0,.29l-2.64-.07a1.19,1.19,0,0,0,1.27,1.32,2.81,2.81,0,0,0,1-.15Zm-.31-1.87a.92.92,0,0,0-.93-1.07,1.11,1.11,0,0,0-1.12,1Z" transform="translate(0 -0.01)"/><path class="cls-1" d="M123.55,94.52a1.5,1.5,0,0,1,1.34-.61,1.55,1.55,0,0,1,1.5,1.77,1.67,1.67,0,0,1-1.76,1.75,1.35,1.35,0,0,1-1.13-.58h0l-.08,1.84-.59,0L123,95c0-.43,0-.77,0-1.08h.53v.58Zm0,1.46a1,1,0,0,0,1,1c.76,0,1.2-.53,1.24-1.33a1.17,1.17,0,0,0-1.1-1.35,1.12,1.12,0,0,0-1.15,1Z" transform="translate(0 -0.01)"/><path class="cls-1" d="M127.53,93.48l.59-.16,0,.79,1,0,0,.4-1,0-.1,1.94c0,.42.12.66.49.68a1.4,1.4,0,0,0,.4,0l0,.4a1.8,1.8,0,0,1-.58.06c-.94,0-.93-.78-.91-1.13l.1-1.93-.6,0,0-.41.6,0Z" transform="translate(0 -0.01)"/><path class="cls-1" d="M135.18,97.76l-.62,0-.49-1.55-1.88-.08-.66,1.5-.6,0L133,93l.68,0Zm-1.21-2-.45-1.42c-.09-.32-.16-.62-.22-.9h0c-.09.28-.2.57-.32.86l-.62,1.39Z" transform="translate(0 -0.01)"/><path class="cls-1" d="M136.49,97.83l-.59,0,.32-4.93.59,0Z" transform="translate(0 -0.01)"/><path class="cls-1" d="M138.24,97.92l-.58,0,.22-3.36.59,0Zm0-4a.34.34,0,0,1-.35-.37.36.36,0,0,1,.41-.32.35.35,0,0,1,.36.36A.36.36,0,0,1,138.21,94Z" transform="translate(0 -0.01)"/><path class="cls-1" d="M142.61,94.78l-1.71,3.28-.55,0-1.18-3.44.63,0,.63,2c.1.31.18.6.25.88h0c.11-.27.24-.55.38-.84l.91-1.91Z" transform="translate(0 -0.01)"/><path class="cls-1" d="M145.74,98.19a3.29,3.29,0,0,1-1.23.14,1.6,1.6,0,0,1-1.66-1.8,1.73,1.73,0,0,1,1.86-1.71,1.4,1.4,0,0,1,1.37,1.62c0,.12,0,.21,0,.29l-2.63-.16a1.16,1.16,0,0,0,1.21,1.36,2.6,2.6,0,0,0,1-.12Zm-.23-1.88a.92.92,0,0,0-.89-1.1,1.14,1.14,0,0,0-1.16,1Z" transform="translate(0 -0.01)"/><path class="cls-1" d="M149,98.54l-.59,0,.3-3.35.58,0Zm.05-4a.35.35,0,0,1-.35-.38.37.37,0,0,1,.42-.32.35.35,0,0,1,.35.37A.37.37,0,0,1,149.06,94.58Z" transform="translate(0 -0.01)"/><path class="cls-1" d="M153.22,98.82l-.58,0,.18-2c.05-.54-.13-1-.8-1.09a1,1,0,0,0-1.1.89l-.19,2.05-.59,0,.23-2.49c0-.34,0-.6.06-.87l.52,0,0,.55h0a1.44,1.44,0,0,1,1.29-.54,1.23,1.23,0,0,1,1.18,1.48Z" transform="translate(0 -0.01)"/><path class="cls-1" d="M156.54,95.08l.6-.13-.08.78,1,.08,0,.4-1-.08-.2,1.94c0,.42.08.67.46.7a1.55,1.55,0,0,0,.4,0v.39a1.63,1.63,0,0,1-.58,0c-.93-.07-.88-.81-.84-1.17l.2-1.92-.6,0,0-.39.6,0Z" transform="translate(0 -0.01)"/><path class="cls-1" d="M161.51,99.46l-.58,0,.22-2c.06-.55-.12-1-.78-1.09a1,1,0,0,0-1.12.85L159,99.26l-.59-.05L159,94.3l.58,0-.23,2.08h0a1.5,1.5,0,0,1,1.26-.5,1.22,1.22,0,0,1,1.13,1.49Z" transform="translate(0 -0.01)"/><path class="cls-1" d="M165.35,99.65a3,3,0,0,1-1.23.11,1.58,1.58,0,0,1-1.59-1.85,1.74,1.74,0,0,1,1.93-1.65,1.39,1.39,0,0,1,1.31,1.66c0,.11,0,.2-.05.28L163.1,98a1.15,1.15,0,0,0,1.15,1.39,2.71,2.71,0,0,0,1-.09Zm-.15-1.88a.91.91,0,0,0-.85-1.13,1.14,1.14,0,0,0-1.19,1Z" transform="translate(0 -0.01)"/><path class="cls-1" d="M171,96.17a1.93,1.93,0,0,0-.91-.3c-.75-.08-1.09.3-1.13.63s.23.73.92,1.06,1.22.83,1.13,1.5-.79,1.25-1.94,1.14a2.67,2.67,0,0,1-1.25-.41l.22-.41a2.52,2.52,0,0,0,1.12.4c.72.07,1.18-.23,1.25-.73s-.19-.77-.86-1.09-1.27-.8-1.19-1.45.82-1.17,1.8-1.07a2.41,2.41,0,0,1,1.07.32Z" transform="translate(0 -0.01)"/><path class="cls-1" d="M174.76,100.7l-.59-.06.28-2c.07-.55-.09-1-.75-1.11a1,1,0,0,0-1.14.84l-.29,2-.58-.06.68-4.9.58.06-.29,2.07h0a1.5,1.5,0,0,1,1.27-.48A1.2,1.2,0,0,1,175,98.67Z" transform="translate(0 -0.01)"/><path class="cls-1" d="M176.43,100.88l-.58-.06.48-3.34.59.06Zm.28-4a.34.34,0,0,1-.33-.39.37.37,0,0,1,.43-.3.33.33,0,0,1,.33.38A.36.36,0,0,1,176.71,96.92Z" transform="translate(0 -0.01)"/><path class="cls-1" d="M180.62,101.35l-.58-.07.3-2c.09-.54-.07-1-.73-1.12a1,1,0,0,0-1.16.83l-.31,2-.58-.07.38-2.48c.05-.34.07-.59.1-.86l.52.06-.05.55h0a1.46,1.46,0,0,1,1.32-.48,1.2,1.2,0,0,1,1.09,1.53Z" transform="translate(0 -0.01)"/><path class="cls-1" d="M184.45,101.66a3.06,3.06,0,0,1-1.23.07,1.57,1.57,0,0,1-1.51-1.9,1.76,1.76,0,0,1,2-1.59,1.37,1.37,0,0,1,1.24,1.7c0,.12,0,.2-.06.28l-2.61-.32a1.13,1.13,0,0,0,1.09,1.43,2.66,2.66,0,0,0,1,0Zm-.06-1.89a.89.89,0,0,0-.8-1.15,1.15,1.15,0,0,0-1.23.91Z" transform="translate(0 -0.01)"/><path class="cls-1" d="M20.61,63.3a26.92,26.92,0,0,0-.19-4.39c.83.07,1.47.15,1.89.17,1.92.17,2.36.26,2.36.55s-.31.36-1.17.62v3h2.75c.64-.62.86-.81,1.56-1.43,1,.65,1.25.84,2.17,1.43.25.2.33.31.33.41s-.25.38-1,.64c0,6.78,0,7.78.17,10.53,0,.26-.09.38-.37.48a7.9,7.9,0,0,1-1.77.16c-.7,0-.89-.09-.89-.45V74H23.53c0,1.17,0,1.79.11,6.27,0,.31-.11.43-.44.53a12,12,0,0,1-1.89.14c-.64,0-.84-.14-.84-.57.06-1.86.06-1.86.12-6.37H17.92v.93c0,.24-.08.33-.22.4a6.11,6.11,0,0,1-1.86.22c-.67,0-.87-.12-.87-.55v0c.09-3.55.12-4.65.12-8,0-1.14,0-1.6,0-2.43a2.43,2.43,0,0,1-.92.26A23.24,23.24,0,0,1,11,69.06v0a12,12,0,0,1,1.75.74c1.33.67,1.94,1.34,1.94,2.1a1.83,1.83,0,0,1-1.47,1.82c-.5,0-.67-.19-.78-.89A8.21,8.21,0,0,0,11.45,70a1.49,1.49,0,0,0-.5-.45v5.25c0,3,0,3.79.05,5.49,0,.5-.47.62-2.11.62-.75,0-.92-.1-.92-.55s.09-2.22.14-5.28V71.47a32.3,32.3,0,0,1-3.66,2.24l-.23-.29A24.41,24.41,0,0,0,8.33,69a21.61,21.61,0,0,0,2.78-4.85H6.81a10.78,10.78,0,0,0-1.89.12l-.17-.86a8.39,8.39,0,0,0,2,.24H8.11v-2.6A13.43,13.43,0,0,0,7.92,59a21.62,21.62,0,0,1,3.86.48c.19.07.31.17.31.26s-.31.41-1.14.62v3.34h.66c.59-.55.59-.55,1.25-1.14.89.62,1.14.81,2,1.45.11.1.14.15.25.24,0-.91-.06-1.24-.14-2.34,1.47.6,1.89.79,3.28,1.43Zm0,4.92V63.81H17.92v4.41Zm0,.5H17.92V73.5h2.67Zm5.84-.5V63.81H23.5v4.41Zm0,5.28V68.72H23.5l0,4.78Z" transform="translate(0 -0.01)"/><path class="cls-1" d="M98.29,51.79A4.63,4.63,0,0,1,97.76,53c-.14.28-.28.57-.42.88L90.23,70.48a13.08,13.08,0,0,0-.64,1.6c0,.41.39.6,1.16.58h2.5c.33,0,.5.07.5.22s-.16.17-.46.17H82.24c-.29,0-.43-.06-.43-.17s.3-.22.88-.22h1.83a2.23,2.23,0,0,0,1.69-.55A6.2,6.2,0,0,0,87,70.6l5.39-12.51A23.57,23.57,0,0,0,94,53.91c0-.38-.26-.57-.77-.57a17.64,17.64,0,0,0-1.87.24,4.34,4.34,0,0,1-.63.06q-.39,0-.39-.21c0-.14.6-.31,1.8-.49a33.67,33.67,0,0,0,5.73-1.3l.22-.06A.19.19,0,0,1,98.29,51.79Z" transform="translate(0 -0.01)"/><path class="cls-1" d="M137.76,73.45a30.76,30.76,0,0,0,5.81-4.66,38.35,38.35,0,0,0,7.12-10.2,5.57,5.57,0,0,0,.54-1.55c0-.17-.17-.25-.51-.25a36.58,36.58,0,0,0-6.09,1,21.58,21.58,0,0,0-4.55,1.43,3.23,3.23,0,0,1-1,.22,3.77,3.77,0,0,1-2.66-1.85,3,3,0,0,1-.8-1.74,1.34,1.34,0,0,1,.17-.64,3.11,3.11,0,0,0,3,1.6A87.69,87.69,0,0,0,148,55.74c2.15-.3,2.37-.35,3.12-.72a2.16,2.16,0,0,1,.66-.14A4.9,4.9,0,0,1,153.89,56c1,.76,1.52,1.42,1.52,1.84s-.11.54-.52.88a5.37,5.37,0,0,0-1.2,1.55,32.74,32.74,0,0,1-8.46,9.69A25,25,0,0,1,138,73.7Z" transform="translate(0 -0.01)"/><path class="cls-1" d="M159.31,33.2c1.35-.59,2.71-1.17,4.06-1.74l3.4-1.42c.52-.22,1-.46,1.58-.64l.26-.08c-.21,0,.12,0,.2,0l.21,0,.37.1a7.68,7.68,0,0,1,.88.35,25,25,0,0,1,2.32,1.29c2.07,1.28,4,2.7,6,4.13,2.92,2.12,5.81,4.29,8.72,6.43.78.58,1.53-.73.76-1.3-4.78-3.52-9.45-7.26-14.48-10.41a13.43,13.43,0,0,0-4.33-2.08,3.3,3.3,0,0,0-2,.33c-1.17.47-2.33,1-3.49,1.44-1.74.74-3.48,1.48-5.22,2.24-.89.38-.12,1.69.76,1.3Z" transform="translate(0 -0.01)"/><path class="cls-1" d="M172.94,4.57l-10.34.25-1.49,0a.76.76,0,0,0,0,1.52l10.34-.25,1.49,0a.76.76,0,0,0,0-1.51Z" transform="translate(0 -0.01)"/><path class="cls-1" d="M146.59,22.54l5-7L159.5,4.47l1.82-2.55c.57-.79-.74-1.54-1.3-.76l-5,7-7.94,11.1-1.82,2.55c-.56.79.75,1.55,1.31.76Z" transform="translate(0 -0.01)"/><path class="cls-1" d="M151.18,24.18l6.9-7.69L169,4.29l2.52-2.81c.65-.72-.42-1.79-1.07-1.07L163.58,8.1,152.64,20.3l-2.53,2.81c-.64.72.42,1.8,1.07,1.07Z" transform="translate(0 -0.01)"/><path class="cls-1" d="M159.4,20.86l1.7,7.85.24,1.11c.21.95,1.67.55,1.46-.4l-1.7-7.84-.24-1.12c-.21-.95-1.67-.55-1.46.4Z" transform="translate(0 -0.01)"/><path class="cls-1" d="M155.47,25.07c3,.54,6,1.09,9.05,1.56a4.42,4.42,0,0,0,1.69.15.76.76,0,0,0-.4-1.46c.26-.07.2,0,.08,0a2.13,2.13,0,0,0-.25,0l-.16,0c.13,0,.08,0,0,0l-.48-.07c-.82-.12-1.64-.26-2.47-.4l-5.41-.94-1.24-.23c-1-.17-1.35,1.29-.4,1.46Z" transform="translate(0 -0.01)"/><path class="cls-1" d="M156.16,29.22l8.5-5.17,1.22-.75a.76.76,0,0,0-.77-1.3l-8.49,5.17-1.22.75a.75.75,0,0,0,.76,1.3Z" transform="translate(0 -0.01)"/><path class="cls-1" d="M163.91,11l1.75,8.08.25,1.15c.21.95,1.66.55,1.46-.4l-1.76-8.08-.25-1.15c-.2-.95-1.66-.55-1.45.4Z" transform="translate(0 -0.01)"/><path class="cls-1" d="M171.94,15.24l-10-.92-1.44-.13c-1-.09-1,1.42,0,1.51l10,.92,1.44.13c1,.09,1-1.42,0-1.51Z" transform="translate(0 -0.01)"/><path class="cls-1" d="M164.83,1l1.89,8.44.27,1.2c.22,1,1.67.55,1.46-.4l-1.89-8.44L166.29.55c-.22-.94-1.67-.54-1.46.41Z" transform="translate(0 -0.01)"/><path class="cls-1" d="M170.55,10.48l-5.84,4.92-9.31,7.84-2.16,1.82c-.74.63.33,1.69,1.07,1.07l5.84-4.92,9.31-7.85,2.16-1.81c.74-.63-.33-1.7-1.07-1.07Z" transform="translate(0 -0.01)"/><path class="cls-1" d="M154.32,12.69,155.55,21l.17,1.18a.77.77,0,0,0,.93.53.78.78,0,0,0,.53-.93L156,13.47l-.17-1.18a.76.76,0,1,0-1.46.4Z" transform="translate(0 -0.01)"/><path class="cls-1" d="M159.82,17.26l-7.53-.94-1.07-.14c-.4-.05-.75.39-.75.76a.79.79,0,0,0,.75.76l7.53.94,1.07.13a.75.75,0,0,0,.76-.75.78.78,0,0,0-.76-.76Z" transform="translate(0 -0.01)"/><path class="cls-1" d="M161.81,7.23h-12a.76.76,0,0,0,0,1.52l10.45,0h1.51a.76.76,0,0,0,0-1.51Z" transform="translate(0 -0.01)"/><path class="cls-1" d="M154.87,3.4l1.52,8.46.22,1.22c.17,1,1.63.56,1.46-.4l-1.52-8.46L156.33,3c-.17-1-1.63-.56-1.46.4Z" transform="translate(0 -0.01)"/><path class="cls-2" d="M126.19,36.49c2.75-4.78,9.63-10.8,10.71-11.58,7.91-5.72,19.7-.15,19.19,7.06-.33,4.55-4.14,9.55-9.88,13.61" transform="translate(0 -0.01)"/><path class="cls-3" d="M.29,53.16V55.4l15.12-.11s19.14-7.69,85.87-7.69,85.86,7.69,85.86,7.69l6.67,0h8.48V53.07l-15,0s-19.14-7.69-85.86-7.69S15.6,53.05,15.6,53.05Z" transform="translate(0 -0.01)"/><path class="cls-3" d="M.29,94.15v2.24l15.12-.11s19.14-7.69,85.87-7.69,85.86,7.69,85.86,7.69l6.67,0h8.48V94.07l-15,0s-19.14-7.7-85.86-7.7-85.87,7.7-85.87,7.7Z" transform="translate(0 -0.01)"/><path class="cls-1" d="M101.55,24.4c1.19-3.18,2.89-6.32,5.78-8.23a7.84,7.84,0,0,1,1.5-.83,4.84,4.84,0,0,1,.65-.19c.07,0,.11.07,0,0-.28-.35-.12.05-.1.31a10,10,0,0,1,0,1.1c0,.29,0,.58,0,.87,0,.09-.08.73,0,.33-.14.93,1.2,1.37,1.45.4,0-.12.09-.25.14-.37s.27-.58.4-.83A7.89,7.89,0,0,1,113,14.74a2.68,2.68,0,0,1,2.41-.76,7.17,7.17,0,0,1,2.77,2.08c4.56,4.77,6.83,11.61,7.1,18.11a54.22,54.22,0,0,1-.85,11c-.15,1,1.3,1.36,1.46.4,1.14-7,1.51-14.16-.94-21a27,27,0,0,0-5.76-9.69A8.93,8.93,0,0,0,116,12.58a3.84,3.84,0,0,0-3.27.5,7.77,7.77,0,0,0-2.47,2.75,8,8,0,0,0-.88,1.9l1.45.4a11.61,11.61,0,0,0,.12-1.77,3.68,3.68,0,0,0-.39-2.32c-.81-.91-2.37-.11-3.2.35-3.7,2-5.82,5.77-7.26,9.61-.34.91,1.12,1.3,1.46.4Z" transform="translate(0 -0.01)"/><path class="cls-1" d="M67.6,45.06a12.07,12.07,0,0,1-3.38-10.35c.52-2.78,2.23-5.7,5.08-6.57a6,6,0,0,1,4.67.6c.85.47,1.62-.83.76-1.3a7.31,7.31,0,0,0-9.31,1.47,11.84,11.84,0,0,0-2.58,10.46,14.43,14.43,0,0,0,3.69,6.76c.66.71,1.73-.36,1.07-1.07Z" transform="translate(0 -0.01)"/><path class="cls-1" d="M77.41,44.85A17.17,17.17,0,0,1,74,34a14.39,14.39,0,0,1,.67-3.68A4.54,4.54,0,0,1,76,28.06c1.54-1.26,3.64-1.07,5.39-.44.92.33,1.32-1.13.41-1.46-3.22-1.15-6.91-.43-8.29,2.94a16.18,16.18,0,0,0-.67,9.34,19,19,0,0,0,3.24,7.17c.56.79,1.87,0,1.3-.76Z" transform="translate(0 -0.01)"/><path class="cls-1" d="M106.24,45.16a14.9,14.9,0,0,0,3.31-12.36,11.59,11.59,0,0,0-8.11-9.1,9.19,9.19,0,0,0-4.68.22,8,8,0,0,0-3.69,2.21c-.68.7.39,1.77,1.06,1.07a7.72,7.72,0,0,1,6.59-2.12A9,9,0,0,1,105.58,28,11.77,11.77,0,0,1,108,38.25a13.23,13.23,0,0,1-2.83,5.84c-.63.74.43,1.81,1.06,1.07Z" transform="translate(0 -0.01)"/><path class="cls-1" d="M86.26,29.87a12.47,12.47,0,0,1,4.87-2.68c.34-.08.75,0,1-.29a3.39,3.39,0,0,0,.55-1.09,11.13,11.13,0,0,0,.65-2.2c.46-2.36.56-6-1.66-7.57a4.67,4.67,0,0,0-2-.65,13.22,13.22,0,0,0-2.81-.15,12.08,12.08,0,0,0-4.93,1.3,7.43,7.43,0,0,0-3,2.73,4,4,0,0,0,.34,4.37A31,31,0,0,0,82,27.51c1,1.16,2.17,2.39,3.74,2.58,1,.12,1-1.39,0-1.51a4.2,4.2,0,0,1-2.13-1.52,21,21,0,0,1-1.86-2.36A13.32,13.32,0,0,1,80,21.82a2.47,2.47,0,0,1,.74-2.51,9,9,0,0,1,6.23-2.57,13.1,13.1,0,0,1,2,.06,5.76,5.76,0,0,1,1.73.37,2.75,2.75,0,0,1,1.16,1.77A10.06,10.06,0,0,1,91,26l.66-.37c-2.39.15-4.62,1.75-6.42,3.19C84.43,29.41,85.5,30.47,86.26,29.87Z" transform="translate(0 -0.01)"/><path class="cls-1" d="M89.46,16.64a2.59,2.59,0,0,1,.31,1.17,2,2,0,0,1-.23,1,4.29,4.29,0,0,1-1.89,1.67,9.14,9.14,0,0,1-5.78.9,3.11,3.11,0,0,1-1.17-.45l-.11-.08c-.08-.05.08.07,0,0a2.28,2.28,0,0,1-.22-.22s-.09-.11,0,0a1.3,1.3,0,0,1-.1-.15l-.06-.11c-.08-.14,0,.12,0,0-.33-.91-1.79-.52-1.46.4.81,2.22,3.69,2.47,5.69,2.25,2.31-.25,5.11-1.13,6.38-3.26a3.84,3.84,0,0,0,0-3.8c-.43-.87-1.74-.1-1.3.77Z" transform="translate(0 -0.01)"/><path class="cls-1" d="M81.79,22.61A25.49,25.49,0,0,0,83,26a8.68,8.68,0,0,0,2.19,3.32.79.79,0,0,0,1.07,0,.76.76,0,0,0,0-1.07,7.68,7.68,0,0,1-2-3,23.57,23.57,0,0,1-1.06-3,.76.76,0,0,0-1.46.4Z" transform="translate(0 -0.01)"/><path class="cls-1" d="M84.76,22.31a30.55,30.55,0,0,0,.73,3.39,22.72,22.72,0,0,0,1,2.64.76.76,0,0,0,1,.27.78.78,0,0,0,.27-1l-.15-.34s-.08-.19,0-.11,0-.08,0-.1c-.08-.2-.16-.4-.23-.6a12.05,12.05,0,0,1-.4-1.2,31.32,31.32,0,0,1-.72-3.33.74.74,0,0,0-.92-.52.76.76,0,0,0-.53.93Z" transform="translate(0 -0.01)"/><path class="cls-1" d="M87.39,21.33c0,1.85.24,3.7.25,5.56a.76.76,0,0,0,1.51,0c0-1.86-.25-3.71-.25-5.56a.76.76,0,0,0-1.51,0Z" transform="translate(0 -0.01)"/><path class="cls-1" d="M89.35,20.75a1.17,1.17,0,0,0,.05.11c.1.18,0-.08,0,0s.07.19.1.29.1.4.13.6a.68.68,0,0,1,0,.19c0-.08,0,0,0,0l0,.36c0,.25,0,.5,0,.75A24.75,24.75,0,0,1,89.6,26a.76.76,0,0,0,.75.76.77.77,0,0,0,.76-.76,23.41,23.41,0,0,0,.15-3,6.53,6.53,0,0,0-.61-3,.75.75,0,1,0-1.3.76Z" transform="translate(0 -0.01)"/><path class="cls-2" d="M120.93,25.74c-2,2.31-8.26,3.4-13.46,3.39" transform="translate(0 -0.01)"/><path class="cls-2" d="M143.42,35.51c2.56.88,5.11,3.65,5.35,5" transform="translate(0 -0.01)"/><path class="cls-2" d="M138.19,38.42c3.48.72,6.63,4.23,6.59,5.87" transform="translate(0 -0.01)"/><path class="cls-1" d="M103,7.14c-.41,0-.74-.52-1-.8a4.73,4.73,0,0,0-1.49-1.22,2.94,2.94,0,0,0-2.66.15,32.59,32.59,0,0,0-7,4.93c-1.86,1.57-3.66,3.23-5.41,4.93-.69.68.38,1.75,1.07,1.07a80,80,0,0,1,8.59-7.44,25.91,25.91,0,0,1,3-1.95,4.14,4.14,0,0,1,.93-.4l.2-.06c.15,0-.12,0,0,0a1.45,1.45,0,0,1,.58.14c1.2.55,1.6,2.17,3.11,2.16a.76.76,0,0,0,0-1.51Z" transform="translate(0 -0.01)"/><path class="cls-1" d="M79.58,16.7c-1.08-.79-2.18-1.56-3.28-2.31s-2.48-1.83-3.8-2.58a2.37,2.37,0,0,0-2.77,0A2.2,2.2,0,0,0,69,13c-.22,1,1.24,1.35,1.45.4l0-.08,0-.09c0-.12-.09.16,0,0s.14-.25.1-.19.24-.24.09-.1c0,0,.17-.11,0,0s.22-.06.09,0a.94.94,0,0,1,.44.06,6.2,6.2,0,0,1,1.48.89c2,1.39,4.08,2.76,6.06,4.22a.76.76,0,1,0,.76-1.31Z" transform="translate(0 -0.01)"/><path class="cls-1" d="M18.58,38.75c3.83-1.92,7.58-4,11.27-6.16,2.56-1.5,5.07-3.07,7.68-4.5a28.31,28.31,0,0,1,2.76-1.37c.21-.09.79-.22.25-.23l.1,0,.07,0s-.15-.07-.05,0c.3.14.6.31.9.48,2,1.16,4,2.46,6,3.75,1.49,1,3,2,4.44,3,.81.54,1.57-.77.77-1.31-3.31-2.23-6.63-4.5-10.08-6.51A6.23,6.23,0,0,0,40.91,25a3,3,0,0,0-1.6.47c-.48.22-1,.45-1.44.7-2.52,1.29-4.94,2.81-7.37,4.25-4.16,2.47-8.37,4.82-12.68,7-.87.44-.1,1.74.76,1.31Z" transform="translate(0 -0.01)"/><path class="cls-1" d="M116.83,20.64a2.5,2.5,0,0,0-2.4-.77,4,4,0,0,0-2,.93,2.41,2.41,0,0,0-.59,1.81c.07.66,1.38,2.34,3.67,1.34a2.61,2.61,0,0,0,1.69-1.52A2,2,0,0,0,116.83,20.64Z" transform="translate(0 -0.01)"/><path class="cls-1" d="M64,64.55,65.43,63a24.59,24.59,0,0,1,2.12,1.64c0-.64,0-1,0-1.69,0-2.08,0-3.08-.13-4.7a34.07,34.07,0,0,1,3.61,1.55h7.11c.86-.86,1.14-1.1,2-1.89a33.45,33.45,0,0,1,3,2c.11.1.16.17.16.22s-.11.14-.36.14H70.66c0,2.29,0,3.08-.11,4.53h7.19c.72-.66,1-.88,1.7-1.5,1.08.64,1.41.86,2.44,1.53.31.19.42.33.42.47s-.31.41-1.14.7c-1.22,3.58-2.17,5.29-4,7.25a16.72,16.72,0,0,0,6.23,2.7v.24A2.92,2.92,0,0,0,82,77.39a6,6,0,0,0-.55,1.22c-.09.26-.17.38-.31.38a4.79,4.79,0,0,1-1.25-.59,16.6,16.6,0,0,1-4.36-3.54,20.85,20.85,0,0,1-4.61,2.84,29.56,29.56,0,0,1-5.36,1.82l-.14-.29a28.94,28.94,0,0,0,6.28-3.74,18.65,18.65,0,0,0,2.5-2.42c-1.42-2.19-2.06-4.17-2.62-7.78h-1A20,20,0,0,1,69,72.69a12.6,12.6,0,0,1-3.89,4.85,30.14,30.14,0,0,1-2.67,1.79l-.24-.22a15.1,15.1,0,0,0,4.63-7.92c-.16.12-1,.6-2.5,1.46a47.63,47.63,0,0,1-5,2.62c0,.88-.11,1.15-.42,1.15s-.36,0-1.72-3.61a30.36,30.36,0,0,0,3.47-.52V65.06H58.88a6.47,6.47,0,0,0-1.56.14l-.16-.86a6.18,6.18,0,0,0,1.72.21H60.6v-3.1a27,27,0,0,0-.19-3.24l2,.19c1.84.14,2.31.24,2.31.52s-.31.38-1.17.65v5Zm3.53.51H63.57v6.58c1.28-.31,2.42-.59,3.37-.88a34.44,34.44,0,0,0,.61-5.7Zm4.7.23a12.45,12.45,0,0,0,3.14,6.31,18,18,0,0,0,2.58-6.31Z" transform="translate(0 -0.01)"/><path class="cls-1" d="M42.13,75.53A9.12,9.12,0,0,0,42,73.9a22.2,22.2,0,0,1,3.75.36c.2,0,.31.12.31.24s-.31.36-1,.55v1.33h6.25c.89-.85,1.14-1.12,2-1.93,1.41.88,1.83,1.15,3.19,2,.11.1.17.17.17.22s-.14.17-.33.17H45.41a12.67,12.67,0,0,0,4.22,2.24,22.92,22.92,0,0,0,7.31,1.14v.24A3.85,3.85,0,0,0,55.05,83c-.06.22-.17.31-.31.31a14.18,14.18,0,0,1-2.22-.71A16.36,16.36,0,0,1,45,77.15l.06,3c0,.31,0,.84,0,1.46,0,1,0,1.31.06,2.22,0,.52-.36.62-2.06.62-.94,0-1.08-.07-1.08-.5,0-.67,0-1.22.06-1.7,0-1.07.05-1.33.05-1.74l0-2.1a19.24,19.24,0,0,1-5.39,3.34A31.39,31.39,0,0,1,31,83.54l-.14-.21a30.3,30.3,0,0,0,9.22-6.44H33.57a7.76,7.76,0,0,0-1.69.16l-.17-.86a7.67,7.67,0,0,0,1.84.19h8.58Zm-3.36-5.35a44.33,44.33,0,0,1-5.06,3.7c-.08.88-.16,1.1-.44,1.1S33,75,31.38,71.8a46.25,46.25,0,0,0,7.39-2.1c0-2.77-.06-4.6-.11-5.51a26,26,0,0,1,2.91,1.29h.23a13.05,13.05,0,0,0,.33-3.2c3.67.5,4.19.6,4.19.91s-.33.33-1.27.5c-1,.9-1.36,1.22-2.11,1.79h2.52c.64-.6.84-.77,1.48-1.29,1,.55,1.25.72,2.11,1.29.22.16.33.26.33.38s-.19.31-.92.64V69c0,1.55,0,2.57.09,4.46,0,.48-.36.57-1.86.57-.89,0-1,0-1-.43v-.67H41.55v.74c0,.48-.25.55-1.87.55-.88,0-1,0-1-.43ZM32.24,64a17.88,17.88,0,0,1,4.06,1.41c.89.45,1.25.88,1.25,1.5,0,1.1-.78,2.1-1.62,2.1-.41,0-.5-.09-.91-.93a12.15,12.15,0,0,0-2.89-3.89Zm13.45,4.89V66H41.55v2.86Zm-4.14.5v3.08h4.14V69.34ZM49,68.8a20,20,0,0,0,3.5-4.95c3.67,1.75,3.67,1.75,3.67,2s-.25.31-1.28.31h-.17A31.78,31.78,0,0,1,49.19,69Zm.28,1a35.83,35.83,0,0,1,5.06,1.1c.88.31,1.27.77,1.27,1.53,0,1-.64,1.86-1.3,1.86-.25,0-.45-.14-.75-.48A17.34,17.34,0,0,0,49.16,70Z" transform="translate(0 -0.01)"/><path class="cls-1" d="M113.1,64.15q0,2.58-2.78,5a74.18,74.18,0,0,1-9.82,6.44q-2.61,1.55-5.28,3.21,1.73.12,3.09.12c3.59,0,5.77,0,6.52-.11a3.65,3.65,0,0,0,1.83-.61A6.67,6.67,0,0,0,108.52,76c.17-.31.33-.46.5-.46a.25.25,0,0,1,.28.28,13.28,13.28,0,0,1-1.2,2.45,9.93,9.93,0,0,0-.67,1.27,10.84,10.84,0,0,1-1,1.75l-3.84.06q-8.4,0-10.52-.12l.32-.76a3.13,3.13,0,0,1,.81-1.21A14.5,14.5,0,0,1,95.15,78q3.9-2.23,8.37-5.41a16.39,16.39,0,0,0,5.14-5.29,7.19,7.19,0,0,0,.92-3.3,3,3,0,0,0-1-2.39,3.94,3.94,0,0,0-2.71-.87,5.11,5.11,0,0,0-4.22,2.07,2.68,2.68,0,0,0-.71,1.41q0,.21.18.21h1a.92.92,0,0,1,.67.33,1,1,0,0,1,.32.66,1.32,1.32,0,0,1-.55,1.06,1.91,1.91,0,0,1-1.25.46,1.75,1.75,0,0,1-1.18-.46,1.37,1.37,0,0,1-.51-1.06,5.12,5.12,0,0,1,2-3.66,7.94,7.94,0,0,1,5.53-1.84A7,7,0,0,1,111.48,61,3.85,3.85,0,0,1,113.1,64.15Z" transform="translate(0 -0.01)"/><path class="cls-1" d="M133,59.46a4.68,4.68,0,0,1-2.68,4.09A13.55,13.55,0,0,1,126,65.18c-.33.06-.5.13-.5.21s.2.15.6.27q3.31,1,3.31,4T126.34,75a10.78,10.78,0,0,1-6.75,2.09,7.41,7.41,0,0,1-4.26-1,3.41,3.41,0,0,1-1.52-3,2.89,2.89,0,0,1,.74-2,2.39,2.39,0,0,1,1.83-.8,1.68,1.68,0,0,1,1,.33,1,1,0,0,1,.44.79,1.25,1.25,0,0,1-.46,1,1.59,1.59,0,0,1-1.09.41h-.77c-.57,0-.85.25-.85.76a2.39,2.39,0,0,0,1.22,2,5.23,5.23,0,0,0,3,.81,6.9,6.9,0,0,0,5.42-2.47,7.75,7.75,0,0,0,1.32-2.36,7.38,7.38,0,0,0,.55-2.63,3,3,0,0,0-.83-2.14,2.59,2.59,0,0,0-2-.84H121.2c-.39,0-.59-.18-.59-.54s.34-.36,1-.36a12,12,0,0,0,3.48-.43,7.64,7.64,0,0,0,3.43-2.27A5,5,0,0,0,129.86,59q0-2.94-3.27-2.94a6,6,0,0,0-3,.82c-1,.55-1.42,1.12-1.42,1.72,0,.13,0,.2.08.22l.69.12a1,1,0,0,1,1,1.18,1.23,1.23,0,0,1-.43,1,1.57,1.57,0,0,1-1.09.38,1.55,1.55,0,0,1-1.16-.47,1.59,1.59,0,0,1-.46-1.14,3.85,3.85,0,0,1,1.8-3,8.23,8.23,0,0,1,5.1-1.48,6.23,6.23,0,0,1,3.91,1.09A3.62,3.62,0,0,1,133,59.46Z" transform="translate(0 -0.01)"/><path class="cls-1" d="M149.82,84.14a12.88,12.88,0,0,0,3.94-5.39,9.43,9.43,0,0,0,.73-3c0-.59-.43-.95-1.38-1.21a1.2,1.2,0,0,1,.85-.28,6.74,6.74,0,0,1,3,1c1.81-1.1,3.84-2.75,3.84-3.12,0-.09-.15-.13-.55-.13a37.93,37.93,0,0,0-5.59.67,14.41,14.41,0,0,0-3.54,1,1.82,1.82,0,0,1-2.46-.76,3.09,3.09,0,0,1-.82-1.72.83.83,0,0,1,.12-.47A2.27,2.27,0,0,0,150,71.88c.62,0,.7,0,7-.65,1.66-.17,2.54-.26,2.61-.28a1.61,1.61,0,0,0,.6-.15,1.83,1.83,0,0,1,.68-.19,2.86,2.86,0,0,1,1.55.8c.93.73,1.41,1.33,1.41,1.78a.63.63,0,0,1-.35.54,1.39,1.39,0,0,1-.55.11A20.93,20.93,0,0,0,159.63,75c-.71.26-1.38.48-2.46.8A12.68,12.68,0,0,1,155,80.56a11.9,11.9,0,0,1-5,3.79Z" transform="translate(0 -0.01)"/><path class="cls-1" d="M166.91,67.62a2.43,2.43,0,0,0,1.87.49c.75,0,4.17-.07,7.41-.16.32,0,1.53,0,2.09,0,1.88,0,2.46.1,2.75.42a1,1,0,0,1,.23.69c0,.57-.41.94-1.22,1.08a71.7,71.7,0,0,1-8.34.27c-.86,0-1,0-2.32.09a1.84,1.84,0,0,0-.82.21,1.42,1.42,0,0,1-.64.18c-.45,0-1-.5-1.39-1.42a5.85,5.85,0,0,1-.65-2.39,1,1,0,0,1,.22-.76A3.52,3.52,0,0,0,166.91,67.62Z" transform="translate(0 -0.01)"/><path class="cls-1" d="M191.13,75.49a22.81,22.81,0,0,1,5.62,3.88c1.2,1.18,1.66,2,1.66,3,0,1.31-.86,2.48-1.79,2.48-.54,0-.78-.25-1.05-1.1a12.7,12.7,0,0,0-.77-2.16c-2.44.64-3.32.85-9.33,2.11-1.39.3-2.25.51-3.05.71a2.68,2.68,0,0,0-.78.33,1.5,1.5,0,0,1-.8.23c-.67,0-1.28-.46-2-1.52A4.42,4.42,0,0,1,177.74,81a1.3,1.3,0,0,1,.19-.68,3.35,3.35,0,0,0,1.2,1.33,2.5,2.5,0,0,0,1.44.34l.67,0c.88-1.54,2.38-4.67,3.45-7.19,1.23-2.87,1.79-4.5,1.79-5.17s-.48-1.29-1.82-1.86a2.13,2.13,0,0,1,.94-.18,8.26,8.26,0,0,1,3.34,1c1,.53,1.58,1.08,1.58,1.54,0,.3-.13.51-.51.9-.53.55-.53.55-2.86,4.18-1.9,2.94-3.47,5.28-4.57,6.77,3.77-.23,9.12-.78,11.84-1.19a17,17,0,0,0-3.53-5.08Z" transform="translate(0 -0.01)"/><path class="cls-1" d="M98.79,12.79c2.67-2.3,5.33-4.64,8.21-6.68a18.78,18.78,0,0,1,3.66-2.17c.23-.09.47-.17.71-.24a3.36,3.36,0,0,0,.6-.08s.23,0,0,0-.05,0,0,0a2.34,2.34,0,0,0,.27.15c.2.11.4.22.59.34a28.63,28.63,0,0,1,4.84,4c2.11,2.07,4.13,4.23,6.19,6.35,3.28,3.4,6.65,6.72,10.12,9.92.72.66,1.79-.41,1.07-1.07q-4.85-4.47-9.44-9.21c-2.2-2.26-4.35-4.57-6.6-6.79A33.83,33.83,0,0,0,113.8,3a12.47,12.47,0,0,0-1.18-.68,2.4,2.4,0,0,0-1.65,0,12.59,12.59,0,0,0-3.7,1.85,95.87,95.87,0,0,0-9.55,7.63c-.74.63.33,1.69,1.07,1.06Z" transform="translate(0 -0.01)"/><path class="cls-1" d="M92.14,27.16c3,1,4.53,3.85,5,6.83A21,21,0,0,1,95.68,44.7c-.35.91,1.11,1.3,1.46.4a23.65,23.65,0,0,0,1.68-9.29,12.49,12.49,0,0,0-2.59-7.69,8.07,8.07,0,0,0-3.69-2.41c-.93-.31-1.33,1.15-.4,1.45Z" transform="translate(0 -0.01)"/><path class="cls-1" d="M86.31,44.43a30.14,30.14,0,0,1-1.09-8,15.83,15.83,0,0,1,1.29-7c.43-.87-.87-1.63-1.3-.76a17.26,17.26,0,0,0-1.5,7.57,31.74,31.74,0,0,0,1.14,8.55.76.76,0,0,0,1.46-.4Z" transform="translate(0 -0.01)"/><line class="cls-2" x1="62.32" y1="11.64" x2="47.9" y2="27.92"/><line class="cls-2" x1="71.04" y1="26.36" x2="62.64" y2="12.49"/><line class="cls-2" x1="74.48" y1="26.77" x2="65.29" y2="11.53"/><line class="cls-2" x1="57.93" y1="30.64" x2="56.82" y2="33.36"/><line class="cls-2" x1="61.63" y1="20.32" x2="60.44" y2="23.4"/><line class="cls-2" x1="54.79" y1="27.06" x2="55.92" y2="25.43"/><path class="cls-1" d="M55.8,33.37a.13.13,0,0,0,0,.06.15.15,0,0,0,0,.09.17.17,0,0,0,.06.06.19.19,0,0,0,.18,0l.12-.09.05-.05a.05.05,0,0,0,0,0v0a.17.17,0,0,0,0-.07l0,0-.05-.05,0,0h-.09l-.13,0a.06.06,0,0,0-.06,0,.08.08,0,0,0,0,0,.11.11,0,0,0,0,.06.17.17,0,0,0,0,.07.16.16,0,0,0,.08.1l0,0H56l.13,0L56,33.19l-.13.09.26.15v-.06a.14.14,0,0,0,0-.06.13.13,0,0,0,0-.06.1.1,0,0,0-.05,0H56a.18.18,0,0,0-.12,0l0,0A.19.19,0,0,0,55.8,33.37Z" transform="translate(0 -0.01)"/><path class="cls-1" d="M56.13,33.3c-1.74,1.15-4.73,3.64-3.51,6.1a1.91,1.91,0,0,0,1.79,1.1,2.56,2.56,0,0,0,2-1.46,9,9,0,0,0,.6-5.22c-.09-.76-1.3-.77-1.21,0a9.67,9.67,0,0,1-.21,4.08,2.94,2.94,0,0,1-.51,1,1.25,1.25,0,0,1-.56.4.67.67,0,0,1-.8-.3,1.19,1.19,0,0,1-.17-.63,2.37,2.37,0,0,1,.21-.95,7.5,7.5,0,0,1,3-3C57.38,33.91,56.78,32.87,56.13,33.3Z" transform="translate(0 -0.01)"/><path class="cls-1" d="M61.42,23.78l0-.1a.62.62,0,0,0-.89-.37,9.05,9.05,0,0,0-3.39,3.53,3.06,3.06,0,0,0,0,2.88,2,2,0,0,0,2.1.93A2.73,2.73,0,0,0,61,29a9.55,9.55,0,0,0,.38-5.22.6.6,0,0,0-.74-.42.61.61,0,0,0-.42.74,9.11,9.11,0,0,1-.15,4,2,2,0,0,1-.12.34c0-.09-.06.13-.08.16s-.1.18-.15.27l-.08.12c-.07.1.07-.07,0,0s-.11.12-.17.17-.24.19-.09.09l-.16.11-.09.05c-.14.08.07,0,0,0l-.16,0-.1,0c.16,0,.09,0,0,0h-.26c.2,0,.06,0,0,0s-.25-.1-.08,0l-.15-.08-.09-.05c.15.09,0,0,0,0l-.17-.16c0-.06.08.13,0,0l-.06-.1S58,28.8,58.06,29l-.06-.2,0-.12c0-.17,0,.06,0-.05a2.26,2.26,0,0,1,0-.52c0,.14,0-.15,0-.2a2.07,2.07,0,0,1,.1-.33A4.78,4.78,0,0,1,59,26.14a10.49,10.49,0,0,1,2.1-1.78L60.21,24l0,.1a.6.6,0,0,0,1.16-.32Z" transform="translate(0 -0.01)"/><path class="cls-1" d="M50,40.27a9,9,0,0,0-3.41,3.55,3.06,3.06,0,0,0,0,2.88,2,2,0,0,0,2.13.89,2.92,2.92,0,0,0,1.89-1.86A6.8,6.8,0,0,0,51,43.6a11.69,11.69,0,0,0,0-1.45c0-.27,0-.53-.07-.8a2.86,2.86,0,0,0-.13-.72.61.61,0,0,0-.74-.42.59.59,0,0,0-.42.74,3.33,3.33,0,0,1,.14,1,11.23,11.23,0,0,1,0,1.16,6.23,6.23,0,0,1-.24,1.73,3,3,0,0,1-.49,1c.08-.12-.08.08-.11.12l-.18.17c-.11.09.11-.08,0,0l-.06,0-.22.12c.17-.08,0,0-.09,0s-.23,0,0,0h-.29c-.09,0,.15,0,0,0L48,46.37c-.12,0,.12.07,0,0l-.1-.05-.08,0c-.11-.06.1.09,0,0l-.16-.15s-.09-.13,0,0l-.07-.09-.1-.2c.07.16,0,0,0-.08s-.06-.35,0-.18a2.9,2.9,0,0,1,0-.51c0-.17,0,.13,0,0l0-.16c0-.13.07-.25.11-.38a5,5,0,0,1,.9-1.42,10.54,10.54,0,0,1,2.1-1.78C51.2,40.88,50.59,39.83,50,40.27Z" transform="translate(0 -0.01)"/><path class="cls-1" d="M57.73,19l-.65.47-.71.55c-.17.15-.35.29-.52.45l-.45.42-.4.41c-.11.13-.23.26-.34.4s-.25.32-.37.49-.16.24-.24.36-.13.22-.18.33a4.58,4.58,0,0,0-.2.46,1.71,1.71,0,0,0-.09.3,3,3,0,0,0-.08.43,2.11,2.11,0,0,0,0,.25s0,.08,0,.12a.11.11,0,0,0,0,0,1.92,1.92,0,0,0,0,.22.84.84,0,0,0,0,.2,1.6,1.6,0,0,0,.1.23.36.36,0,0,0,0,.09.56.56,0,0,1,.05.08c0,.06.1.13.16.19a1.79,1.79,0,0,0,.25.22l.16.1.23.09.09,0A2,2,0,0,0,55,26h.32l.27,0,.23,0,.37-.14.24-.12.24-.15.36-.28.23-.22.22-.26c.11-.14.22-.28.31-.42s.14-.22.21-.33.13-.25.18-.37.16-.37.23-.56a3,3,0,0,0,.15-.45c0-.16.09-.32.13-.49s.07-.35.1-.53.07-.49.09-.74,0-.41,0-.62,0-.21,0-.32v-.09a.62.62,0,0,0,0-.19l0-.08a.5.5,0,0,0-.13-.19h0l0,0-.26-.23a.53.53,0,0,0-.2-.13.55.55,0,0,0-.46,0,.53.53,0,0,0-.2.13l-.09.12a.52.52,0,0,0-.08.3l0,.16a.59.59,0,0,0,.15.27l.27.24,0,0-.18-.42c0,.19,0,.39,0,.59s0,.37,0,.56l0,.3,0-.16c0,.14,0,.28-.07.42s-.05.27-.08.4-.06.25-.1.38-.07.23-.11.34-.08.22-.12.33l0,0,.06-.14a2.56,2.56,0,0,1-.11.24l-.12.24-.12.21-.13.2-.14.19v0l.09-.12-.24.29-.25.24-.15.11.13-.09-.23.16a1.71,1.71,0,0,1-.23.13l-.13.06.15-.06-.2.07-.19.05h-.11l.16,0-.16,0H55l.16,0-.24-.06-.06,0,.15.06a.77.77,0,0,1-.18-.1l0,0,.13.09a.81.81,0,0,1-.14-.12l0-.05.09.13-.1-.17,0-.05.06.14a.86.86,0,0,1-.06-.23s0-.05,0-.07l0,.16a.88.88,0,0,1,0-.16.91.91,0,0,1,0-.17.41.41,0,0,1,0-.11l0,.17a1.84,1.84,0,0,1,.05-.25,2.76,2.76,0,0,1,.08-.27l.06-.16-.06.15.09-.21.11-.21.14-.22a2.22,2.22,0,0,1,.15-.23l.17-.23,0,0-.09.12.31-.38c.12-.14.24-.27.37-.4s.28-.28.43-.41l.48-.44.55-.44.08-.06-.13.1c.21-.17.43-.32.64-.48l.2-.13a.52.52,0,0,0,.17-.16.41.41,0,0,0,.1-.21.39.39,0,0,0,0-.24.36.36,0,0,0-.07-.22l-.09-.12a.63.63,0,0,0-.27-.16l-.16,0A.61.61,0,0,0,57.73,19Z" transform="translate(0 -0.01)"/><path class="cls-1" d="M50,33.58l-.23-.21,0,0-.12-.09a.39.39,0,0,0-.23-.07.22.22,0,0,0-.16,0,.36.36,0,0,0-.22.07c-.23.16-.45.33-.67.5l-.49.4-.44.39c-.13.12-.26.24-.38.37a3.89,3.89,0,0,0-.34.36l-.29.34c-.11.14-.23.29-.34.45l-.2.31a2.69,2.69,0,0,0-.16.29,3.79,3.79,0,0,0-.18.42,2,2,0,0,0-.09.26,2,2,0,0,0-.05.24,2.33,2.33,0,0,0,0,.38,1.34,1.34,0,0,0,0,.2c0,.11,0,.23.06.34l0,.08a1.08,1.08,0,0,0,.08.19l0,0,.08.13a1.16,1.16,0,0,0,.2.24l.18.15.07,0a1.75,1.75,0,0,0,.28.13l.16,0a2,2,0,0,0,.24,0H47l.25,0,.1,0,.19,0,.1,0,.24-.1.2-.11.2-.14.32-.26.2-.19c.1-.11.19-.23.28-.35l.17-.25c.06-.1.12-.19.17-.29a1.87,1.87,0,0,0,.15-.32,4.19,4.19,0,0,0,.2-.49,2.4,2.4,0,0,0,.12-.38,3.2,3.2,0,0,0,.1-.42A3.54,3.54,0,0,0,50,35.7c0-.21.06-.43.08-.64s0-.35,0-.52a4.68,4.68,0,0,0,0-.53.47.47,0,0,0,0-.24.41.41,0,0,0-.13-.19.43.43,0,0,0-.19-.13.59.59,0,0,0-.23-.05l-.16,0a.57.57,0,0,0-.27.16L49,33.7a.56.56,0,0,0-.09.31q0,.3,0,.6c0,.18,0,.37,0,.56l0,.29,0-.16-.06.36c0,.11,0,.22-.07.33a3,3,0,0,1-.08.32l-.09.3-.11.27v0l.06-.14a3.86,3.86,0,0,1-.2.41,2.5,2.5,0,0,1-.21.35l-.13.18.09-.12-.2.24-.22.21-.12.1.12-.1a1.33,1.33,0,0,1-.19.14l-.19.11-.11.05.14-.06-.17.06-.17,0-.09,0,.16,0-.13,0h-.21l.16,0-.2,0-.06,0,.15.06a.51.51,0,0,1-.16-.09l0,0,.13.09a.43.43,0,0,1-.12-.11l0,0,.09.12a.38.38,0,0,1-.09-.15.08.08,0,0,1,0,0l.06.14a1.72,1.72,0,0,1-.07-.21.13.13,0,0,0,0-.06l0,.16a.77.77,0,0,1,0-.15.92.92,0,0,1,0-.16.28.28,0,0,1,0-.09l0,.16a1.63,1.63,0,0,1,.12-.47s0-.1,0-.15l-.06.15.09-.19.1-.2.12-.2.14-.21c.06-.07.11-.15.16-.22l0,0-.1.13a3.58,3.58,0,0,1,.3-.36c.11-.13.22-.26.34-.38l.41-.39c.14-.14.3-.27.45-.4s.34-.29.52-.42l.07-.06-.12.1c.15-.12.3-.24.46-.35l-.73-.09.24.2,0,0a.61.61,0,0,0,.43.18.46.46,0,0,0,.23,0,.43.43,0,0,0,.19-.13l.1-.12a.64.64,0,0,0,.08-.3l0-.17A.54.54,0,0,0,50,33.58Z" transform="translate(0 -0.01)"/><path class="cls-1" d="M63.67,14.26c0,.08,0,.16,0,.24a.15.15,0,0,0,0,.09l.06.06a.19.19,0,0,0,.18,0h0a.17.17,0,0,0,.06-.06.29.29,0,0,0,0-.09l0-.2v0a.09.09,0,0,0,0-.07.29.29,0,0,0-.09-.09h-.07a.15.15,0,0,0-.12.05l0,0a.29.29,0,0,0,0,.09l0,.2v0l.08-.15h0l.26.15a1.94,1.94,0,0,0,0-.24.09.09,0,0,0,0-.07.29.29,0,0,0-.09-.09h-.07a.15.15,0,0,0-.12.05A.17.17,0,0,0,63.67,14.26Z" transform="translate(0 -0.01)"/><path class="cls-1" d="M63.55,14c-1.65.94-4.41,3-3.41,5.28a1.85,1.85,0,0,0,1.64,1.14,2.36,2.36,0,0,0,1.95-1.24,7.79,7.79,0,0,0,.73-4.66c0-.77-1.26-.78-1.21,0a8.08,8.08,0,0,1-.33,3.59,2.32,2.32,0,0,1-.48.78.92.92,0,0,1-.52.31c-.12,0,.08,0,0,0H61.7c.13,0-.22-.07-.09,0a.57.57,0,0,1-.34-.32,1.1,1.1,0,0,1-.11-.53,2,2,0,0,1,.23-.81A6.64,6.64,0,0,1,64.16,15,.6.6,0,0,0,63.55,14Z" transform="translate(0 -0.01)"/><path class="cls-1" d="M63.83,21a3.59,3.59,0,0,0-1,2.22A5.11,5.11,0,0,0,63,25.86a1.75,1.75,0,0,0,.79,1,1.57,1.57,0,0,0,1.29.05,2.65,2.65,0,0,0,1.3-1,2.72,2.72,0,0,0,.22-1.71,5.44,5.44,0,0,0-.68-1.92,3.35,3.35,0,0,0-1.31-1.38.62.62,0,0,0-.83.22.61.61,0,0,0,.22.83l.23.14c.09.05-.07-.07,0,0l.14.13c.08.08.15.17.22.25l0,.05.11.17a5.32,5.32,0,0,1,.35.67l0,.1c0,.06,0,.11.07.17l.11.38c0,.11,0,.23.07.35a.28.28,0,0,1,0,.09s0-.11,0,0,0,.13,0,.19a1.93,1.93,0,0,1,0,.34c0,.08,0,.1,0,0a1.16,1.16,0,0,1,0,.18s0,.08,0,.12,0-.07,0,0l-.07.11c.07-.11,0-.05,0,0s.1-.07,0,0l-.13.1-.3.18-.12.06c-.06,0,.06,0,.06,0l-.07,0a2,2,0,0,0-.23.06s.15,0,0,0h-.09c-.12,0,.11,0,0,0l-.1,0s.14.08,0,0l-.08-.05c-.09,0,.08.09,0,0a.27.27,0,0,0-.08-.07c-.08-.08,0,0,0,0s0-.05,0-.08-.06-.13-.1-.19,0,.13,0,0a.56.56,0,0,0,0-.12L64,25.09c0-.08,0-.16-.05-.24v.07a.2.2,0,0,0,0-.07c0-.05,0-.1,0-.15a5.42,5.42,0,0,1,0-.57,2.46,2.46,0,0,1,0-.28.66.66,0,0,1,0-.14s0-.19,0-.1,0-.06,0-.09a1.16,1.16,0,0,1,0-.18c0-.1,0-.2.06-.3a5.62,5.62,0,0,1,.19-.58c0-.13-.06.1,0,0a.83.83,0,0,0,.07-.13l.12-.22.07-.1c0-.07-.1.1,0,0a1.37,1.37,0,0,1,.17-.17.61.61,0,0,0,0-.85A.62.62,0,0,0,63.83,21Z" transform="translate(0 -0.01)"/><path class="cls-1" d="M60.71,37.25c1.16-.37,1.51-1.78,1.61-2.85a4.08,4.08,0,0,0-.82-3.26.64.64,0,0,0-.73-.09,3.27,3.27,0,0,0-1.21,1.13,7.76,7.76,0,0,0-.92,1.7c-.37.93-.79,2.42,0,3.23a1.89,1.89,0,0,0,2,.14.63.63,0,0,0,.42-.75.61.61,0,0,0-.74-.42,3.12,3.12,0,0,1-.43.15l-.16,0c-.1,0,0,0,0,0h-.11a.76.76,0,0,0-.15,0c-.06,0,.15.05.05,0h-.05c-.16,0,0,0,0,0l-.11-.06s.13.1.05,0l0,0c-.07-.09.07.13,0,0a.31.31,0,0,0,0-.1c.1.11,0,.08,0,0l0-.13c0-.07,0,.17,0,.05V36a1.71,1.71,0,0,1,0-.32s0-.11,0-.17,0,.12,0,0,0-.24.08-.37a7.41,7.41,0,0,1,.24-.76.82.82,0,0,0,.06-.14l.06-.14c.06-.13.12-.25.19-.37a6.1,6.1,0,0,1,.41-.7l.13-.17c.08-.12-.06.07,0,0a.27.27,0,0,1,.07-.08,3.47,3.47,0,0,1,.25-.29l.15-.13c.13-.12-.07,0,0,0l.27-.16L60.65,32l.1.11c-.06-.06,0-.06,0,0s.1.18.14.27,0-.1,0,0l.06.16a3,3,0,0,1,.08.32,1.16,1.16,0,0,1,0,.18s0,.22,0,.08a2.19,2.19,0,0,1,0,.36,6.59,6.59,0,0,1,0,.77c0,.06,0,.11,0,.17s0,.07,0,.11,0-.06,0,0a1.65,1.65,0,0,1-.06.32,3.15,3.15,0,0,1-.09.36.88.88,0,0,0,0,.15l0,.09c0-.07,0-.07,0,0l-.13.25-.1.15c-.07.11.08-.07,0,0l-.1.1c-.09.11.08,0,0,0l-.1,0c-.07.06.13,0,0,0C59.65,36.32,60,37.48,60.71,37.25Z" transform="translate(0 -0.01)"/><path class="cls-1" d="M54.42,26.88a3.85,3.85,0,0,0-1.33.54,8.6,8.6,0,0,0-1.42,1.06,4,4,0,0,0-1.61,2.69c0,1.26,1.56,1.84,2.63,1.68a2.89,2.89,0,0,0,2.08-2.1,8,8,0,0,0,.42-3.29.62.62,0,0,0-.61-.6.61.61,0,0,0-.6.6,7.62,7.62,0,0,1,0,1.17L54,29s0,.18,0,.09,0,0,0,0,0,.08,0,.11c0,.24-.09.47-.15.7a4.79,4.79,0,0,1-.21.64c0,.06-.06.15,0,0a1,1,0,0,1-.07.15l-.15.29-.09.13s-.1.14,0,.06l-.05.06a1.31,1.31,0,0,1-.11.12l-.11.1c-.1.09.08,0,0,0l-.24.14c-.07,0,.11,0,0,0l-.14,0s-.17,0-.06,0H52.2c-.15,0,.1,0-.05,0l-.36-.1-.09,0h0l-.17-.09-.15-.08c-.12-.07,0,.05,0,0a.76.76,0,0,1-.09-.09s.08.14,0,.05,0,0,0-.05,0,0,0,0a.61.61,0,0,0,0-.13c0-.08,0,.15,0,0v-.12c0-.13,0,.11,0,0a.83.83,0,0,0,0-.15.56.56,0,0,1,0-.12c0-.15,0,.07,0,0a2.44,2.44,0,0,1,.14-.28c.06-.1.12-.18.18-.27s.12-.16.07-.1.07-.09.1-.12a6.51,6.51,0,0,1,.51-.54c.21-.2.42-.39.65-.57-.1.09.07,0,.09-.06l.18-.13.33-.22a6.89,6.89,0,0,1,.66-.34l.05,0,.15-.05.28-.07a.59.59,0,0,0,.42-.74A.62.62,0,0,0,54.42,26.88Z" transform="translate(0 -0.01)"/><path class="cls-1" d="M38.74,42.79a2.62,2.62,0,0,0,2.09-.11,3.75,3.75,0,0,0,1.42-1.43A9.56,9.56,0,0,0,43.48,37a.75.75,0,0,0-.88-.89,2.67,2.67,0,0,0-.57.16,9.15,9.15,0,0,0-1.59.81,8.73,8.73,0,0,0-2.8,2.57,2.29,2.29,0,0,0-.37,1.74,2.2,2.2,0,0,0,1.47,1.36.61.61,0,1,0,.32-1.17c-.11,0,0,0,0,0l-.1,0-.18-.1-.12-.08-.1-.09c0-.06-.08-.13,0,0a.57.57,0,0,0-.08-.13s0,.11,0,0,0-.19,0,0V41c0-.09,0-.14,0,0,0-.11.06-.22.1-.33s-.05.08,0,0a1.09,1.09,0,0,1,.08-.15,2.64,2.64,0,0,1,.23-.35.35.35,0,0,1,0-.08s-.07.09,0,0,.09-.11.13-.16l.33-.35c.22-.22.46-.43.7-.63l.11-.08.18-.14.39-.28c.26-.17.52-.33.79-.48s.28-.16.43-.23l.21-.1.08,0c.11-.05-.07,0,0,0a3.43,3.43,0,0,1,.69-.21l-.59-.16.11.1-.17-.43a8.92,8.92,0,0,1-.93,3.56c-.07.13-.15.26-.23.39L41,41c0,.06,0,.06,0,0l-.07.09a3,3,0,0,1-.3.32s-.19.14-.08.07l-.15.1-.16.08-.09,0c.07,0,.07,0,0,0l-.19.06-.1,0h-.2s-.25,0-.12,0a2.64,2.64,0,0,1-.46-.13.61.61,0,0,0-.32,1.17Z" transform="translate(0 -0.01)"/><path class="cls-1" d="M52.18,20.76l.09-.62v-.08a.58.58,0,0,0,0-.32.59.59,0,0,0-.15-.27.62.62,0,0,0-.59-.16c-.48.12-.95.26-1.42.41a11.79,11.79,0,0,0-1.18.42c-.38.15-.75.31-1.1.49a7.07,7.07,0,0,0-.76.43,6.92,6.92,0,0,0-.69.52l-.21.2c-.1.11-.18.22-.27.33s-.09.12-.13.19a2.41,2.41,0,0,0-.15.33.64.64,0,0,0-.06.18,2,2,0,0,0,0,.24v.08a1.12,1.12,0,0,0,0,.32.74.74,0,0,0,0,.14,1.34,1.34,0,0,0,.13.27,1.55,1.55,0,0,0,.19.24,1.5,1.5,0,0,0,.25.19l.15.08a1.74,1.74,0,0,0,.5.17,2.43,2.43,0,0,0,.6.05,3.8,3.8,0,0,0,1.2-.26,6.59,6.59,0,0,0,.71-.34A5.61,5.61,0,0,0,50,23.5a5,5,0,0,0,.59-.53,8.36,8.36,0,0,0,.68-.79c.2-.27.38-.54.55-.82l.26-.46a.57.57,0,0,0,.07-.22.65.65,0,0,0,0-.24.53.53,0,0,0-.11-.21.35.35,0,0,0-.17-.15.6.6,0,0,0-.47-.07.66.66,0,0,0-.36.28,8.54,8.54,0,0,1-.64,1,2.48,2.48,0,0,1-.19.26l.1-.12c-.14.18-.3.36-.45.53a6.33,6.33,0,0,1-.46.44l-.27.22.13-.09a4.53,4.53,0,0,1-.84.52l-.23.11.15-.06a3.94,3.94,0,0,1-.69.21l-.18,0,.16,0a2.68,2.68,0,0,1-.49,0H47l.16,0a1.77,1.77,0,0,1-.31-.08.11.11,0,0,1-.07,0l.14.07a1.49,1.49,0,0,1-.24-.14l.13.09a.67.67,0,0,1-.15-.14l.1.12a.46.46,0,0,1-.09-.15l.06.14a.48.48,0,0,1-.05-.17l0,.16a.74.74,0,0,1,0-.21l0,.16a.92.92,0,0,1,.08-.27l-.06.15a1.45,1.45,0,0,1,.22-.38l-.09.13a2.29,2.29,0,0,1,.43-.45l.16-.13-.12.09c.19-.14.38-.27.58-.39a7.73,7.73,0,0,1,.75-.4l.5-.22L49,21.4c.32-.14.65-.26,1-.37s.76-.25,1.14-.36l.73-.19-.74-.74-.1.61v.09a.49.49,0,0,0,0,.24.52.52,0,0,0,.23.39.49.49,0,0,0,.2.11.64.64,0,0,0,.47-.06L52,21A.54.54,0,0,0,52.18,20.76Z" transform="translate(0 -0.01)"/><path class="cls-1" d="M47.24,27.81A9.81,9.81,0,0,0,43.11,30a3.52,3.52,0,0,0-1.29,2.5,1.68,1.68,0,0,0,1.6,1.62,3.07,3.07,0,0,0,1.37-.23,3.12,3.12,0,0,0,1.51-1.06,6.42,6.42,0,0,0,.87-2.07c.07-.24.14-.49.2-.73a8,8,0,0,0,.22-.84l0,0,0-.06.12-.16.2-.27a.62.62,0,0,0-.22-.83.61.61,0,0,0-.82.22,5,5,0,0,0-.34.46,1.37,1.37,0,0,0-.16.44l-.18.71c-.1.38-.2.76-.32,1.13l-.15.44-.08.2c0,.11,0,0,0,0l-.06.13c-.05.11-.11.22-.17.33l-.09.15,0,.06c-.08.12.09-.08,0,0l-.22.23c-.11.11.05,0,0,0a.91.91,0,0,1-.16.11l-.33.16c.14-.06,0,0-.06,0l-.19.07-.29.08-.14,0c-.17,0,.12,0,0,0h-.36c-.15,0,.14,0,0,0l-.2,0c-.12,0,.1.06,0,0l-.11,0c-.1-.06,0-.05,0,0s-.06-.05-.07-.06l-.06-.06s.08.13,0,0l0-.07c-.06-.1,0,.1,0,0a1.94,1.94,0,0,0,0-.2c0-.08,0,.18,0,.05v-.2c0-.13,0,0,0,0s0-.15.06-.23l0-.12a.08.08,0,0,0,0-.05s0-.11,0,0,0,0,0,0l0-.07a.54.54,0,0,1,.07-.13c0-.08.1-.17.15-.26l.09-.12c.08-.11-.07.08,0,0s.15-.18.24-.27a4.11,4.11,0,0,1,.3-.29l.19-.16.07-.06c.09-.07,0,0,0,0a8.13,8.13,0,0,1,.87-.57A10.22,10.22,0,0,1,47.56,29,.61.61,0,0,0,47.24,27.81Z" transform="translate(0 -0.01)"/></g></g></svg>