<svg width="58" height="24" viewBox="0 0 58 24" fill="none" xmlns="http://www.w3.org/2000/svg">
<path d="M7.73003 3.81954L7.73869 3.77915L7.76177 3.60891L6.69417 3.60314C5.73045 3.59737 5.4347 3.60314 5.40873 3.62766C5.39575 3.6392 5.06249 4.90445 4.46954 7.19545C4.18677 8.28901 3.94872 9.16184 3.94007 9.13588C3.93141 9.10991 3.59382 7.86198 3.18698 6.36301C2.9434 5.44653 2.6914 4.5323 2.43101 3.62045C2.41658 3.60602 1.12393 3.60025 0.0765292 3.60891C-0.0749538 3.61035 -0.160073 3.31316 1.42978 8.36836C1.64907 9.06807 1.97944 10.0592 2.16122 10.5699C2.37186 11.1585 2.5219 11.6144 2.62433 11.9939C2.80611 12.7166 2.81188 13.1697 2.77293 13.6991C2.72676 14.3094 2.72099 18.623 2.76571 18.6952C2.80034 18.75 4.82156 18.776 5.01343 18.724C5.04373 18.7154 5.06393 18.6865 5.07836 18.5235C5.12596 18.3836 5.13029 17.8252 5.13029 15.5083V12.5493L5.26014 12.141C5.34525 11.8741 5.55733 11.1715 5.73334 10.58L6.2051 9.00748C6.96829 6.52027 7.69541 4.0749 7.7156 3.93496L7.73147 3.82098L7.73003 3.81954Z" fill="#5E8A0F"/>
<path d="M19.0491 7.40847V7.56284H19.0246L19.0116 11.8231L18.9986 15.9536L18.6682 16.2897C18.2975 16.6662 18.0017 16.8105 17.7334 16.7427C17.4405 16.6691 17.4492 16.7831 17.4246 11.901L17.4015 7.40703H15.275V7.5614H15.2505V12.4377C15.2505 17.6617 15.2505 17.6588 15.5159 18.1825C15.7266 18.6009 16.0353 18.8043 16.5619 18.8736C17.2558 18.9659 18.0046 18.6514 18.6985 17.9762L19.0001 17.6833V18.1897C19.0001 18.6269 19.013 18.699 19.0924 18.7206C19.2222 18.7567 20.8323 18.7596 21.0054 18.7235L21.1497 18.6932V18.5432L21.1742 18.5389V7.37817L19.0505 7.40703L19.0491 7.40847Z" fill="#5E8A0F"/>
<path d="M13.6567 9.61029C13.4547 8.74612 13.0782 8.16471 12.4564 7.76364C11.4811 7.13318 10.3659 7.06538 9.33293 7.57609C8.57984 7.94831 8.09366 8.56578 7.84407 9.47179C7.81202 9.58075 7.78934 9.69224 7.77626 9.80506C7.71278 10.1253 7.70557 10.6014 7.68826 12.8246C7.66229 16.2496 7.70269 16.6564 8.13117 17.434C8.55243 18.1972 9.42526 18.757 10.376 18.8724C10.6617 18.907 11.2416 18.8536 11.5763 18.7599C12.3337 18.5492 13.0609 17.9505 13.3826 17.271C13.5242 16.9989 13.6165 16.7039 13.6552 16.3996C13.749 15.8903 13.7562 15.0651 13.7562 12.9646C13.7562 10.2855 13.7476 9.99261 13.6581 9.60885L13.6567 9.61029ZM11.2315 16.5915C11.0122 16.7348 10.7451 16.7857 10.4885 16.7329C10.2938 16.691 10.0298 16.3852 9.94896 16.1067C9.84797 15.7591 9.84076 10.9217 9.92732 9.97385C10.0716 9.4992 10.4727 9.25106 10.9112 9.36936C11.2532 9.46169 11.4277 9.67521 11.5273 10.1239C11.6008 10.4572 11.6095 10.8712 11.5936 13.3079C11.5835 14.9237 11.5778 15.7143 11.5244 16.1385C11.471 16.4054 11.3816 16.4775 11.2315 16.5929V16.5915Z" fill="#5E8A0F"/>
<path d="M51.8316 12.0415H52.8588L52.8429 11.1109C52.827 10.2569 52.814 10.1602 52.7001 9.92793C52.5197 9.56293 52.2543 9.3999 51.833 9.3999C51.3266 9.3999 51.0063 9.64516 50.8548 10.1472C50.7899 10.3607 50.7221 11.8308 50.7712 11.9578C50.7986 12.0285 50.9457 12.0415 51.8316 12.0415Z" fill="#5E8A0F"/>
<path d="M44.9646 9.92481C44.9035 9.79655 44.8052 9.68967 44.6824 9.61813C44.5597 9.54659 44.4182 9.5137 44.2765 9.52374C44.008 9.54425 43.7522 9.64645 43.5436 9.81661L43.3604 9.95655V16.642L43.5436 16.7819C43.9591 17.0993 44.415 17.1657 44.7295 16.9551C44.8598 16.8631 44.9545 16.7291 44.9978 16.5756C45.08 16.339 45.0873 16.0346 45.0772 13.2214C45.0656 10.2898 45.0598 10.1167 44.9646 9.92481Z" fill="#5E8A0F"/>
<path d="M57.7038 6.91297C57.4989 4.45894 57.3359 3.66257 56.831 2.6397C56.1601 1.28501 55.1921 0.570877 53.8128 0.413623C52.7467 0.292437 48.7331 0.120756 45.0211 0.0385221C38.5924 -0.104305 28.0232 0.17125 26.6728 0.516054C26.0702 0.663961 25.5225 0.981363 25.0945 1.43072C24.2419 2.27903 23.7326 3.49666 23.5292 5.18173C23.0632 9.02796 23.0531 13.6734 23.5018 17.6596C23.6951 19.3735 24.0933 20.4873 24.8406 21.4048C25.3066 21.9776 26.1116 22.4638 26.8301 22.6095C27.335 22.7119 29.8598 22.8533 33.5386 22.9846C34.0869 23.0048 35.5368 23.038 36.7631 23.0596C39.3166 23.1043 44.0126 23.0784 46.6975 23.0034C48.5037 22.9529 51.796 22.8187 52.412 22.7711C52.5851 22.7581 52.9862 22.7321 53.3036 22.7148C54.3697 22.6542 55.0478 22.432 55.684 21.9314C56.5078 21.2837 57.1455 20.0877 57.4152 18.6839C57.6706 17.3566 57.8408 14.9921 57.8755 12.3072C57.9043 10.0638 57.8654 8.85484 57.7038 6.91008V6.91297ZM32.1046 6.02427L30.91 6.03869L30.8581 18.7777L29.8223 18.7907C29.0216 18.8022 28.7777 18.7892 28.759 18.7387C28.7446 18.7027 28.7287 15.8303 28.7215 12.3563L28.7085 6.03869L26.3757 6.00984V4.01892L33.2703 4.04633L33.2991 6.0084L32.1046 6.02282V6.02427ZM39.4292 13.3257V18.8037H37.5421V18.2266C37.5421 17.7923 37.5262 17.6495 37.4743 17.6495C37.4368 17.6495 37.2666 17.7923 37.0949 17.9669C36.7212 18.3463 36.2798 18.6507 35.9018 18.7921C35.1198 19.085 34.3783 18.9133 34.0623 18.3694C33.7724 17.8717 33.768 17.7592 33.768 12.5914V7.84495H35.6536L35.6681 12.3144C35.6825 16.706 35.6839 16.7868 35.7892 16.9657C35.9292 17.2023 36.1413 17.2672 36.4789 17.1734C36.6779 17.1186 36.8136 17.0219 37.1353 16.7017L37.5421 16.2977V7.84495H39.4292V13.3229V13.3257ZM46.7898 18.0217C46.6239 18.3925 46.2531 18.7546 45.9487 18.8441C45.1567 19.0778 44.5204 18.8873 43.7861 18.1963C43.5582 17.9813 43.3461 17.8082 43.3143 17.8082C43.2754 17.8082 43.2552 17.9756 43.2552 18.3059V18.8037H41.3681V4.01892H43.2552V6.43111C43.2552 7.75694 43.2725 8.84329 43.2941 8.84329C43.3158 8.84329 43.5149 8.66728 43.7371 8.45377C44.2478 7.96181 44.6734 7.7454 45.2144 7.70501C46.1795 7.63143 46.7552 8.12916 47.0177 9.26312C47.1 9.61658 47.1072 10.0205 47.1072 13.2998C47.1072 17.2932 47.1072 17.3105 46.7884 18.0217H46.7898ZM54.7751 15.8288C54.7653 16.1808 54.7282 16.5315 54.664 16.8777C54.4015 17.85 53.7032 18.5396 52.6933 18.8224C51.3343 19.2033 49.8368 18.58 49.2395 17.3841C48.9048 16.7132 48.8918 16.579 48.8918 13.2998C48.8918 10.6265 48.9019 10.2975 48.987 9.93253C49.2294 8.901 49.8296 8.23303 50.8467 7.86226C51.141 7.7555 51.4483 7.69924 51.7556 7.69346C52.8534 7.67038 53.9412 8.26044 54.3986 9.22128C54.7059 9.86905 54.7448 10.1475 54.7751 11.9739L54.8025 13.6128L50.7789 13.6403L50.7644 14.741C50.7428 16.2948 50.8481 16.7723 51.2679 17.0537C51.6199 17.2917 52.1624 17.273 52.4567 17.0147C52.7337 16.7724 52.8116 16.5112 52.839 15.7495L52.8635 15.0815H54.8069L54.7751 15.8288Z" fill="#5E8A0F"/>
</svg>
