<svg width="36" height="35" viewBox="0 0 36 35" fill="none" xmlns="http://www.w3.org/2000/svg">
<path d="M2 2H7.84602L8.95533 8.00384M8.95533 8.00384H33.927L27.524 20.4158H11.5165M8.95533 8.00384L11.5165 20.4158M11.5165 20.4158L7.84601 23.9734C6.83754 24.9509 7.55148 26.6218 8.97774 26.6218H27.524M11.5165 20.4158L27.524 26.6218M27.524 26.6218C26.6749 26.6218 25.8606 26.9488 25.2602 27.5307C24.6598 28.1126 24.3225 28.9019 24.3225 29.7248C24.3225 30.5478 24.6598 31.3371 25.2602 31.919C25.8606 32.5009 26.6749 32.8278 27.524 32.8278C28.3731 32.8278 29.1874 32.5009 29.7878 31.919C30.3882 31.3371 30.7255 30.5478 30.7255 29.7248C30.7255 28.9019 30.3882 28.1126 29.7878 27.5307C29.1874 26.9488 28.3731 26.6218 27.524 26.6218ZM14.718 29.7248C14.718 30.5478 14.3807 31.3371 13.7803 31.919C13.1799 32.5009 12.3656 32.8278 11.5165 32.8278C10.6674 32.8278 9.85313 32.5009 9.25273 31.919C8.65233 31.3371 8.31503 30.5478 8.31503 29.7248C8.31503 28.9019 8.65233 28.1126 9.25273 27.5307C9.85313 26.9488 10.6674 26.6218 11.5165 26.6218C12.3656 26.6218 13.1799 26.9488 13.7803 27.5307C14.3807 28.1126 14.718 28.9019 14.718 29.7248Z" stroke="#333333" stroke-width="2.5" stroke-linecap="round" stroke-linejoin="round"/>
</svg>
