<svg width="39" height="31" viewBox="0 0 39 31" fill="none"
    xmlns="http://www.w3.org/2000/svg">
    <path d="M13 17C14.5913 17 16.1174 16.3679 17.2426 15.2426C18.3679 14.1174 19 12.5913 19 11C19 9.4087 18.3679 7.88258 17.2426 6.75736C16.1174 5.63214 14.5913 5 13 5C11.4087 5 9.88258 5.63214 8.75736 6.75736C7.63214 7.88258 7 9.4087 7 11C7 12.5913 7.63214 14.1174 8.75736 15.2426C9.88258 16.3679 11.4087 17 13 17V17Z" stroke="black" stroke-width="2.5" stroke-linecap="round" stroke-linejoin="round"/>
    <path d="M24 29C24 22.7702 19.0751 17 13 17C6.92487 17 2 22.7702 2 29" stroke="black" stroke-width="2.5" stroke-linecap="round"/>
    <path fill-rule="evenodd" clip-rule="evenodd" d="M28.7925 8.4186C28.7339 8.92042 28.6918 9.28125 28.6409 9.28125H28.6403C28.5883 9.28125 28.5375 8.88723 28.4684 8.35084C28.3407 7.36004 28.1503 5.88346 27.7741 5.50719C27.3978 5.13092 25.9212 4.94059 24.9304 4.81287C24.394 4.74373 24 4.69294 24 4.64093C24 4.5852 24.4673 4.51614 25.0756 4.42626C26.0831 4.27738 27.4774 4.07135 27.7747 3.77406C28.0722 3.47653 28.2783 2.08048 28.4271 1.07291C28.5167 0.465975 28.5855 0 28.6409 0C28.693 0 28.745 0.398794 28.8158 0.940053C28.9455 1.93296 29.1378 3.40529 29.5072 3.77467C29.8763 4.14379 31.3465 4.33586 32.3392 4.46555C32.8815 4.53639 33.2812 4.58862 33.2812 4.64093C33.2812 4.69099 32.9234 4.73276 32.4247 4.79095C31.4484 4.9049 29.9326 5.08181 29.5072 5.50719C29.0827 5.93168 28.9064 7.44209 28.7925 8.4186ZM32.5352 23.4799C32.4554 24.1642 32.3979 24.6562 32.3285 24.6562H32.3277C32.2568 24.6562 32.1875 24.119 32.0932 23.3875C31.9191 22.0364 31.6595 20.0229 31.1464 19.5098C30.6334 18.9967 28.6198 18.7372 27.2687 18.563C26.5373 18.4687 26 18.3995 26 18.3285C26 18.2525 26.6372 18.1584 27.4667 18.0358C28.8406 17.8328 30.7419 17.5518 31.1473 17.1464C31.553 16.7407 31.8341 14.837 32.0369 13.4631C32.1591 12.6354 32.253 12 32.3285 12C32.3995 12 32.4705 12.5438 32.5669 13.2819C32.7438 14.6359 33.0061 16.6436 33.5098 17.1473C34.0131 17.6506 36.0179 17.9125 37.3716 18.0894C38.1111 18.186 38.6562 18.2572 38.6562 18.3285C38.6562 18.3968 38.1682 18.4538 37.4883 18.5331C36.1569 18.6885 34.0899 18.9297 33.5098 19.5098C32.931 20.0886 32.6906 22.1483 32.5352 23.4799Z" fill="black"/>
</svg>
